<svg width="22" height="22" viewBox="0 0 22 22" fill="none" xmlns="http://www.w3.org/2000/svg">
<path d="M6.49283 5.2053C6.71081 5.03576 7.02495 5.07503 7.19448 5.29301L10.9998 10.1856L14.8051 5.29301C14.9747 5.07503 15.2888 5.03576 15.5068 5.2053C15.7248 5.37483 15.764 5.68897 15.5945 5.90695L11.6332 11L15.5945 16.093C15.764 16.311 15.7248 16.6251 15.5068 16.7947C15.2888 16.9642 14.9747 16.9249 14.8051 16.707L10.9998 11.8144L7.19448 16.707C7.02495 16.9249 6.71081 16.9642 6.49283 16.7947C6.27486 16.6251 6.23559 16.311 6.40513 16.093L10.3664 11L6.40513 5.90695C6.23559 5.68897 6.27486 5.37483 6.49283 5.2053Z" fill="url(#paint0_linear)"/>
<path fill-rule="evenodd" clip-rule="evenodd" d="M0.5 11C0.5 5.20101 5.20101 0.5 11 0.5C16.7989 0.5 21.5 5.20101 21.5 11C21.5 16.7989 16.7989 21.5 11 21.5C5.20101 21.5 0.5 16.7989 0.5 11ZM11 1.5C5.75329 1.5 1.5 5.75329 1.5 11C1.5 16.2467 5.75329 20.5 11 20.5C16.2467 20.5 20.5 16.2467 20.5 11C20.5 5.75329 16.2467 1.5 11 1.5Z" fill="url(#paint1_linear)"/>
<defs>
<linearGradient id="paint0_linear" x1="0.5" y1="0.5" x2="21.5" y2="21.5" gradientUnits="userSpaceOnUse">
<stop offset="0.182292" stop-color="#60C0CB"/>
<stop offset="1" stop-color="#6868FC"/>
</linearGradient>
<linearGradient id="paint1_linear" x1="0.5" y1="0.5" x2="21.5" y2="21.5" gradientUnits="userSpaceOnUse">
<stop offset="0.182292" stop-color="#60C0CB"/>
<stop offset="1" stop-color="#6868FC"/>
</linearGradient>
</defs>
</svg>
