<svg width="21" height="21" viewBox="0 0 21 21" fill="none" xmlns="http://www.w3.org/2000/svg">
<path fill-rule="evenodd" clip-rule="evenodd" d="M7.95385 0.878871C8.01544 0.372326 8.45364 0 8.9501 0H12.0601C12.5726 0 12.9953 0.378203 13.0563 0.878442L13.0565 0.880427L13.3254 3.00538C13.729 3.15927 14.1189 3.34676 14.5002 3.56707C14.8841 3.78884 15.2492 4.03909 15.5842 4.31308L17.5507 3.48147L17.5534 3.48031C18.0209 3.27865 18.5564 3.4656 18.8106 3.89564L18.8131 3.89985L20.3706 6.59564L20.3719 6.59798C20.6315 7.03995 20.5104 7.59813 20.1122 7.8984L20.1101 7.9L18.4159 9.19458C18.5548 10.0464 18.554 10.9271 18.4085 11.7979L20.1301 13.1L20.1311 13.1008C20.5302 13.4009 20.6518 13.9597 20.3919 14.4021L20.3906 14.4044L18.8306 17.1044C18.5766 17.5343 18.0412 17.7212 17.5739 17.5199L15.5817 16.6811C14.9031 17.2421 14.1372 17.6821 13.3355 17.9782L13.0662 20.1223L13.0638 20.139C12.9878 20.6143 12.5828 21 12.0701 21H8.9501C8.46989 21 8.0069 20.6391 7.97183 20.1052L7.70528 17.9986C7.29795 17.844 6.90457 17.6551 6.51996 17.4329C6.13596 17.2111 5.7707 16.9607 5.43551 16.6866L3.45631 17.5199C2.98895 17.7212 2.45366 17.5343 2.19964 17.1044L2.19715 17.1002L0.639636 14.4044L0.63818 14.4019C0.378449 13.9595 0.5001 13.4007 0.899158 13.1007L0.9001 13.1L2.61403 11.8037C2.47539 10.9524 2.4763 10.0723 2.62172 9.20215L0.9001 7.9L0.899159 7.89929C0.499688 7.59896 0.3833 7.04664 0.621152 6.61057L0.627036 6.59979L2.18962 3.89562C2.44365 3.46573 2.97897 3.27878 3.44633 3.48011L5.43854 4.31894C6.11713 3.75788 6.88302 3.31792 7.68474 3.02175L7.95385 0.878871ZM3.63197 11.8185C3.63637 11.8291 3.64042 11.8399 3.64412 11.8509C3.71247 12.0546 3.64307 12.2792 3.47172 12.4088L1.5022 13.8984L1.50305 13.8998L3.06056 16.5956C3.0618 16.5975 3.06427 16.5999 3.06427 16.5999L3.06606 16.5992L5.34607 15.6392C5.56312 15.5478 5.81397 15.6204 5.94894 15.8122C6.27049 16.0885 6.6323 16.3429 7.02024 16.5671C7.40172 16.7875 7.78849 16.9683 8.18797 17.1107C8.42596 17.1238 8.62553 17.3053 8.65615 17.5472L8.96615 19.9972L8.96649 20H12.0667C12.0698 19.9973 12.0738 19.992 12.0757 19.9845L12.3436 17.8506C12.3867 17.4786 12.6464 17.1629 12.9896 17.04C13.769 16.7519 14.5135 16.3054 15.1559 15.7281C15.2999 15.5987 15.5057 15.5641 15.6841 15.6392L17.9659 16.5999C17.9659 16.5999 17.968 16.5983 17.9692 16.5963L19.528 13.8984L17.5585 12.4088C17.4044 12.2922 17.3312 12.0974 17.3706 11.9082C17.5603 10.9958 17.5663 10.0671 17.3982 9.18152C17.394 9.17128 17.3901 9.16085 17.3865 9.15024C17.3178 8.94715 17.3862 8.72287 17.5565 8.59271L19.508 7.10158L19.5071 7.10015L17.9496 4.40436C17.9484 4.40244 17.9459 4.40007 17.9459 4.40007L17.9449 4.40053L15.6749 5.36051C15.4577 5.45235 15.2064 5.3799 15.0712 5.18782C14.7497 4.9115 14.3879 4.65707 14 4.43293C13.6178 4.21213 13.2303 4.03103 12.8301 3.8885C12.6498 3.87421 12.4918 3.76271 12.4166 3.6009C12.3763 3.52349 12.3562 3.43566 12.3605 3.34602L12.0637 1.00025L12.0601 1H8.95092C8.95092 1 8.94884 1.0008 8.94685 1.00254L8.94608 1.00326L8.67657 3.14939C8.63357 3.52135 8.37383 3.83716 8.03055 3.96006C7.25116 4.24808 6.50672 4.69465 5.86428 5.27191C5.72027 5.40132 5.5145 5.43595 5.33607 5.36082L3.05428 4.40006C3.05428 4.40006 3.05224 4.40173 3.051 4.40365L1.49875 7.09025C1.49875 7.09025 1.49845 7.09394 1.49892 7.09613C1.49943 7.0985 1.50045 7.10027 1.50045 7.10027L1.50172 7.10121L3.47172 8.59122C3.6258 8.70776 3.69896 8.90264 3.65963 9.09178C3.46992 10.0042 3.46387 10.9329 3.63197 11.8185Z" fill="#9BA3B5"/>
<path fill-rule="evenodd" clip-rule="evenodd" d="M6.0101 10.5C6.0101 8.01472 8.02482 6 10.5101 6C12.9953 6 15.0101 8.01471 15.0101 10.5C15.0101 12.9852 12.9953 15 10.5101 15C8.02481 15 6.0101 12.9852 6.0101 10.5ZM10.5101 7C8.5771 7 7.0101 8.567 7.0101 10.5C7.0101 12.433 8.5771 14 10.5101 14C12.4431 14 14.0101 12.433 14.0101 10.5C14.0101 8.56701 12.4431 7 10.5101 7Z" fill="#9BA3B5"/>
</svg>
