<svg width="34" height="28" viewBox="0 0 34 28" fill="none" xmlns="http://www.w3.org/2000/svg">
<path d="M12.6334 4.83332C12.6334 7.13451 10.7679 8.99999 8.46676 8.99999C6.16557 8.99999 4.30009 7.13451 4.30009 4.83332C4.30009 2.53214 6.16557 0.666656 8.46676 0.666656C10.7679 0.666656 12.6334 2.53214 12.6334 4.83332Z" fill="white"/>
<path d="M8.46676 14C12.4267 14 15.7555 16.4583 16.5958 19.7665C18.3884 18.2589 20.8075 17.3333 23.4668 17.3333C28.9834 17.3333 33.4668 21.3 33.4668 26.2167C30.9334 26.8 27.5168 27.3333 23.4668 27.3333C20.8501 27.3333 17.4001 27.1 13.4668 26.2167C13.4668 24.6105 13.9485 23.1028 14.7904 21.8016C13.009 22.1008 10.8791 22.3333 8.46676 22.3333C6.28342 22.3333 3.41676 22.15 0.133423 21.4C0.133423 17.3167 3.86676 14 8.46676 14Z" fill="white"/>
<path d="M28.4668 7.33332C28.4668 10.0947 26.2283 12.3333 23.4668 12.3333C20.7053 12.3333 18.4668 10.0947 18.4668 7.33332C18.4668 4.57191 20.7053 2.33332 23.4668 2.33332C26.2283 2.33332 28.4668 4.57191 28.4668 7.33332Z" fill="white"/>
</svg>
