<svg width="34" height="36" viewBox="0 0 34 36" fill="none" xmlns="http://www.w3.org/2000/svg">
<path d="M22 2.00001C22 1.07954 22.7462 0.333344 23.6667 0.333344H28.6667C29.5872 0.333344 30.3334 1.07954 30.3334 2.00001C30.3334 2.92048 29.5872 3.66668 28.6667 3.66668H25.3334V8.66668H33.6667L32.3337 15.3316C32.3337 15.44 32.3231 15.5499 32.301 15.6602L30.6402 23.9645C30.6364 23.9852 30.6323 24.0057 30.6279 24.0261L28.6344 33.9935C28.4785 34.7727 27.7945 35.3334 27 35.3334H23.6667C22.7462 35.3334 22 34.5872 22 33.6667C22 32.7462 22.7462 32 23.6667 32H25.6337L26.967 25.3333H22C21.0795 25.3333 20.3334 24.5872 20.3334 23.6667C20.3334 22.7462 21.0795 22 22 22H27.6337L28.967 15.3333H15.3334L13.6667 8.66668H22V2.00001Z" fill="white"/>
<path d="M10.3334 20.3333C4.81671 20.3333 0.333374 24.8167 0.333374 30.3333H20.3334C20.3334 24.8167 15.85 20.3333 10.3334 20.3333Z" fill="white"/>
<path d="M2.00004 32C1.07957 32 0.333374 32.7462 0.333374 33.6667C0.333374 34.5872 1.07957 35.3333 2.00004 35.3333H18.6667C19.5872 35.3333 20.3334 34.5872 20.3334 33.6667C20.3334 32.7462 19.5872 32 18.6667 32H2.00004Z" fill="white"/>
</svg>
