<svg width="1440" height="1352" viewBox="0 0 1440 1352" fill="none" xmlns="http://www.w3.org/2000/svg">
<g opacity="0.25">
<path d="M-6.11199e-05 1351.93C-6.10872e-05 1351.18 -6.10709e-05 1350.81 -6.10377e-05 1350.05C480.023 1350.33 959.96 1349.83 1439.98 1350.05C1439.98 1350.81 1439.98 1351.18 1439.98 1351.93C959.977 1351.85 480.006 1352.12 -6.11199e-05 1351.93Z" fill="url(#paint0_radial)"/>
<path d="M-6.11239e-05 1347.86C-6.10897e-05 1347.08 -6.10729e-05 1346.7 -6.10387e-05 1345.91C480.073 1346.32 959.893 1345.6 1439.98 1345.91C1439.98 1346.7 1439.98 1347.08 1439.98 1347.86C959.927 1347.59 480.039 1348.21 -6.11239e-05 1347.86Z" fill="url(#paint1_radial)"/>
<path d="M-6.12715e-05 1343.66C-6.12363e-05 1342.85 -6.1219e-05 1342.46 -6.11841e-05 1341.66C243.62 1341.96 486.333 1348.6 729.868 1341.35C966.364 1334.32 1203.4 1341.43 1439.98 1341.66C1439.98 1342.46 1439.98 1342.86 1439.98 1343.66C1203.28 1343.45 966.245 1337.37 729.614 1343.41C486.223 1349.61 243.442 1343.88 -6.12715e-05 1343.66Z" fill="url(#paint2_radial)"/>
<path d="M-6.13202e-05 1339.32C-6.1284e-05 1338.49 -6.12658e-05 1338.08 -6.12298e-05 1337.25C244.086 1337.61 486.646 1346.33 730.596 1336.85C966.694 1327.66 1203.72 1336.95 1439.98 1337.25C1439.98 1338.08 1439.98 1338.5 1439.98 1339.32C1203.55 1339.06 966.525 1330.79 730.232 1338.95C486.494 1347.39 243.848 1339.69 -6.13202e-05 1339.32Z" fill="url(#paint3_radial)"/>
<path d="M-6.13713e-05 1334.85C-6.13338e-05 1334 -6.13154e-05 1333.57 -6.12779e-05 1332.72C244.704 1333.18 487.053 1343.99 731.537 1332.18C967.143 1320.78 1204.15 1332.32 1439.98 1332.72C1439.98 1333.57 1439.98 1334 1439.98 1334.85C1203.94 1334.49 966.906 1324 731.071 1334.37C486.858 1345.1 244.399 1335.28 -6.13713e-05 1334.85Z" fill="url(#paint4_radial)"/>
<path d="M-6.14236e-05 1330.24C-6.13852e-05 1329.37 -6.1366e-05 1328.93 -6.13278e-05 1328.05C245.466 1328.6 487.561 1341.61 732.706 1327.36C967.669 1313.7 1204.66 1327.56 1439.98 1328.05C1439.98 1328.92 1439.98 1329.36 1439.98 1330.24C1204.41 1329.83 967.406 1317.01 732.138 1329.62C487.307 1342.74 245.094 1330.75 -6.14236e-05 1330.24Z" fill="url(#paint5_radial)"/>
<path d="M-6.14773e-05 1325.49C-6.14379e-05 1324.59 -6.14182e-05 1324.14 -6.13788e-05 1323.23C246.381 1323.87 488.188 1339.16 734.129 1322.38C968.346 1306.41 1205.31 1322.65 1439.98 1323.23C1439.98 1324.14 1439.98 1324.59 1439.98 1325.49C1204.99 1324.96 968.016 1309.83 733.434 1324.72C487.883 1340.31 245.932 1326.09 -6.14773e-05 1325.49Z" fill="url(#paint6_radial)"/>
<path d="M-6.15331e-05 1320.59C-6.14927e-05 1319.67 -6.1472e-05 1319.19 -6.14311e-05 1318.26C135.155 1318.66 269.836 1326.22 404.889 1328.78C516.598 1330.9 625.037 1325.94 735.814 1317.23C969.142 1298.9 1206.04 1317.59 1439.98 1318.26C1439.98 1319.19 1439.98 1319.67 1439.98 1320.59C1205.67 1319.98 968.744 1302.42 734.993 1319.66C624.393 1327.8 515.861 1332.47 404.449 1330.47C269.556 1328.05 134.994 1320.98 -6.15331e-05 1320.59Z" fill="url(#paint7_radial)"/>
<path d="M-6.1591e-05 1315.55C-6.15492e-05 1314.59 -6.1528e-05 1314.11 -6.14861e-05 1313.15C135.562 1313.57 270.522 1322.14 405.94 1325.05C518.326 1327.48 626.596 1321.84 737.779 1311.91C970.074 1291.17 1206.9 1312.34 1439.98 1313.15C1439.98 1314.11 1439.98 1314.59 1439.98 1315.55C1206.49 1314.79 969.608 1294.79 736.822 1314.42C625.833 1323.77 517.479 1329.09 405.423 1326.81C270.183 1324.06 135.358 1315.95 -6.1591e-05 1315.55Z" fill="url(#paint8_radial)"/>
<path d="M-6.16499e-05 1310.35C-6.16066e-05 1309.36 -6.15849e-05 1308.86 -6.15415e-05 1307.87C136.036 1308.33 271.301 1317.96 407.151 1321.22C520.317 1323.93 628.383 1317.63 740.041 1306.43C971.141 1283.23 1207.87 1306.96 1439.98 1307.87C1439.98 1308.86 1439.98 1309.36 1439.98 1310.35C1207.41 1309.51 970.633 1286.95 738.948 1309.01C627.519 1319.62 519.359 1325.59 406.566 1323.03C270.92 1319.93 135.799 1310.8 -6.16499e-05 1310.35Z" fill="url(#paint9_radial)"/>
<path d="M-6.17104e-05 1304.97C-6.16656e-05 1303.95 -6.16437e-05 1303.45 -6.15989e-05 1302.42C136.561 1302.94 272.199 1313.63 408.549 1317.25C522.587 1320.26 630.441 1313.28 742.608 1300.75C972.404 1275.05 1208.98 1301.38 1439.98 1302.42C1439.98 1303.45 1439.98 1303.95 1439.98 1304.97C1208.45 1304 971.811 1278.89 741.379 1303.41C629.45 1315.32 521.503 1321.99 407.879 1319.12C271.767 1315.67 136.307 1305.47 -6.17104e-05 1304.97Z" fill="url(#paint10_radial)"/>
<path d="M-6.17726e-05 1299.45C-6.17263e-05 1298.39 -6.17034e-05 1297.87 -6.16571e-05 1296.81C137.171 1297.35 273.216 1309.17 410.124 1313.14C525.145 1316.47 632.779 1308.8 745.521 1294.88C973.844 1266.68 1210.19 1295.64 1439.98 1296.81C1439.98 1297.87 1439.98 1298.39 1439.98 1299.45C1209.61 1298.34 973.149 1270.61 744.132 1297.64C631.67 1310.91 523.925 1318.26 409.379 1315.07C272.724 1311.27 136.883 1299.98 -6.17726e-05 1299.45Z" fill="url(#paint11_radial)"/>
<path d="M-6.18361e-05 1293.75C-6.17886e-05 1292.66 -6.17645e-05 1292.11 -6.17174e-05 1291.03C137.849 1291.62 274.359 1304.57 411.903 1308.92C527.982 1312.58 635.439 1304.2 748.757 1288.83C975.478 1258.06 1211.53 1289.73 1439.98 1291.04C1439.98 1292.12 1439.98 1292.67 1439.98 1293.76C1210.88 1292.52 974.699 1262.11 747.207 1291.68C634.16 1306.37 526.619 1314.42 411.047 1310.91C273.808 1306.73 137.527 1294.3 -6.18361e-05 1293.75Z" fill="url(#paint12_radial)"/>
<path d="M-6.19014e-05 1287.87C-6.18524e-05 1286.75 -6.18278e-05 1286.19 -6.17788e-05 1285.07C138.611 1285.67 275.63 1299.81 413.868 1304.53C531.125 1308.54 638.395 1299.45 752.383 1282.56C977.333 1249.22 1212.98 1283.6 1439.98 1285.07C1439.98 1286.19 1439.98 1286.75 1439.98 1287.87C1212.3 1286.45 976.435 1253.36 750.646 1285.5C636.981 1301.67 529.617 1310.44 412.928 1306.59C275.02 1302.04 138.247 1288.48 -6.19014e-05 1287.87Z" fill="url(#paint13_radial)"/>
<path d="M-6.19683e-05 1281.81C-6.19178e-05 1280.66 -6.18924e-05 1280.07 -6.18417e-05 1278.91C139.458 1279.57 277.044 1294.9 416.062 1300.02C534.572 1304.38 641.724 1294.56 756.372 1276.09C979.434 1240.12 1214.56 1277.29 1439.98 1278.91C1439.98 1280.07 1439.98 1280.66 1439.98 1281.81C1213.81 1280.27 978.443 1244.39 754.466 1279.13C640.123 1296.85 532.929 1306.33 415.012 1302.14C276.367 1297.21 139.051 1282.46 -6.19683e-05 1281.81Z" fill="url(#paint14_radial)"/>
<path d="M-6.20361e-05 1275.56C-6.19841e-05 1274.37 -6.19578e-05 1273.77 -6.19058e-05 1272.58C140.381 1273.29 278.594 1289.84 418.467 1295.35C538.333 1300.08 645.409 1289.54 760.768 1269.4C981.797 1230.8 1216.24 1270.81 1439.98 1272.58C1439.98 1273.77 1439.98 1274.37 1439.98 1275.56C1215.43 1273.84 980.671 1235.19 758.668 1272.54C643.638 1291.9 536.546 1302.09 417.315 1297.55C277.857 1292.22 139.941 1276.21 -6.20361e-05 1275.56Z" fill="url(#paint15_radial)"/>
<path d="M-6.21065e-05 1269.12C-6.20525e-05 1267.89 -6.20257e-05 1267.27 -6.19723e-05 1266.05C141.398 1266.77 280.297 1284.59 421.119 1290.54C542.433 1295.64 649.5 1284.37 765.571 1262.48C984.415 1221.22 1218.05 1264.07 1439.98 1266.05C1439.98 1267.27 1439.98 1267.89 1439.98 1269.12C1217.18 1267.23 983.153 1225.71 763.284 1265.73C647.543 1286.79 540.485 1297.72 419.848 1292.79C279.484 1287.06 140.915 1269.81 -6.21065e-05 1269.12Z" fill="url(#paint16_radial)"/>
<path d="M-6.21776e-05 1262.47C-6.21222e-05 1261.2 -6.20948e-05 1260.58 -6.20397e-05 1259.32C142.507 1260.06 282.169 1279.2 424.007 1285.55C546.846 1291.06 654.015 1279.06 770.814 1255.35C987.345 1211.38 1219.93 1257.16 1439.98 1259.32C1439.98 1260.59 1439.98 1261.21 1439.98 1262.47C1219.04 1260.39 985.931 1216 768.316 1258.7C651.855 1281.56 544.754 1293.21 422.626 1287.9C281.271 1281.73 141.982 1263.21 -6.21776e-05 1262.47Z" fill="url(#paint17_radial)"/>
<path d="M-6.22506e-05 1255.63C-6.21939e-05 1254.34 -6.21649e-05 1253.67 -6.21082e-05 1252.38C143.719 1253.16 284.185 1273.64 427.141 1280.42C486.443 1283.24 546.194 1283.46 605.259 1278.47C665.501 1273.39 719.297 1260.44 776.523 1247.98C990.598 1201.31 1221.95 1250.01 1439.98 1252.38C1439.98 1253.68 1439.98 1254.34 1439.98 1255.63C1221 1253.36 989.048 1206.04 773.813 1251.44C716.764 1263.47 663.019 1276.06 603.133 1280.95C544.263 1285.77 484.741 1285.56 425.659 1282.84C283.228 1276.24 143.134 1256.39 -6.22506e-05 1255.63Z" fill="url(#paint18_radial)"/>
<path d="M-6.23256e-05 1248.58C-6.2267e-05 1247.24 -6.22372e-05 1246.56 -6.21783e-05 1245.21C145.015 1246.01 286.379 1267.89 430.538 1275.11C490.323 1278.1 550.599 1278.31 610.112 1272.99C671.151 1267.52 725.082 1253.81 782.673 1240.36C994.173 1190.95 1224.03 1242.62 1439.98 1245.21C1439.98 1246.55 1439.98 1247.23 1439.98 1248.58C1223.06 1246.08 992.453 1195.8 779.751 1243.94C722.338 1256.92 668.474 1270.27 607.808 1275.56C548.506 1280.72 488.485 1280.51 428.929 1277.61C285.337 1270.59 144.396 1249.36 -6.23256e-05 1248.58Z" fill="url(#paint19_radial)"/>
<path d="M-6.24294e-05 1241.3C-6.23689e-05 1239.92 -6.23386e-05 1239.23 -6.2278e-05 1237.84C146.421 1238.66 288.742 1261.95 434.206 1269.63C561.339 1276.34 671.286 1263.08 789.314 1232.49C996.095 1178.89 1227.86 1235.06 1439.98 1237.84C1439.98 1239.23 1439.98 1239.92 1439.98 1241.3C1225.21 1238.59 996.223 1185.29 786.171 1236.18C728.386 1250.17 674.352 1264.29 612.865 1269.98C553.097 1275.51 492.525 1275.31 432.469 1272.21C287.615 1264.74 145.76 1242.09 -6.24294e-05 1241.3Z" fill="url(#paint20_radial)"/>
<path d="M-6.25095e-05 1233.8C-6.2447e-05 1232.37 -6.24157e-05 1231.65 -6.23531e-05 1230.22C147.937 1231.06 291.283 1255.83 438.153 1263.97C566.972 1271.1 677.91 1257.22 796.446 1224.36C1000.19 1167.86 1230.31 1227.23 1439.99 1230.22C1439.99 1231.65 1439.99 1232.37 1439.99 1233.8C1229.17 1230.89 998.239 1173.03 793.075 1228.18C674.768 1259.97 564.304 1273.57 436.289 1266.63C290.08 1258.71 147.217 1234.61 -6.25095e-05 1233.8Z" fill="url(#paint21_radial)"/>
<path d="M-6.25916e-05 1226.06C-6.25275e-05 1224.6 -6.24953e-05 1223.86 -6.2431e-05 1222.39C149.555 1223.22 294.011 1249.51 442.371 1258.13C572.91 1265.72 685.118 1251.2 804.086 1215.96C1004.62 1156.55 1232.89 1219.12 1439.98 1222.4C1439.98 1223.87 1439.98 1224.61 1439.98 1226.07C1231.68 1222.92 1002.5 1161.85 800.461 1219.9C681.696 1254.03 570.098 1268.26 440.364 1260.87C292.723 1252.47 148.784 1226.91 -6.25916e-05 1226.06Z" fill="url(#paint22_radial)"/>
<path d="M-6.26759e-05 1218.1C-6.26094e-05 1216.57 -6.25764e-05 1215.82 -6.25099e-05 1214.3C151.283 1215.18 296.924 1242.98 446.886 1252.1C579.17 1260.15 692.92 1244.99 812.227 1207.28C1009.51 1144.93 1235.47 1210.78 1439.98 1214.3C1439.98 1215.82 1439.98 1216.57 1439.98 1218.1C1234.28 1214.66 1007.14 1150.37 808.373 1211.36C689.218 1247.91 576.213 1262.75 444.743 1254.93C295.544 1246.04 150.47 1218.95 -6.26759e-05 1218.1Z" fill="url(#paint23_radial)"/>
<path d="M-6.27612e-05 1209.88C-6.2693e-05 1208.31 -6.26588e-05 1207.53 -6.25906e-05 1205.97C153.129 1206.85 300.016 1236.26 451.689 1245.87C585.768 1254.38 701.306 1238.6 820.892 1198.33C1014.83 1133.02 1238.08 1202.16 1439.98 1205.97C1439.98 1207.53 1439.98 1208.31 1439.98 1209.88C1236.87 1206.2 1012.29 1138.6 816.792 1202.53C697.324 1241.61 582.659 1257.09 449.419 1248.8C298.551 1239.41 152.265 1210.75 -6.27612e-05 1209.88Z" fill="url(#paint24_radial)"/>
<path d="M-6.28498e-05 1201.4C-6.27796e-05 1199.8 -6.27439e-05 1198.98 -6.26732e-05 1197.36C155.095 1198.25 303.311 1229.31 456.788 1239.43C592.655 1248.4 710.36 1232.05 830.091 1189.08C1020.56 1120.74 1240.79 1193.27 1439.98 1197.37C1439.98 1198.98 1439.98 1199.8 1439.98 1201.41C1239.52 1197.45 1017.85 1126.5 825.754 1193.43C706.057 1235.12 589.41 1251.22 454.374 1242.46C301.753 1232.57 154.163 1202.29 -6.28498e-05 1201.4Z" fill="url(#paint25_radial)"/>
<path d="M-6.29405e-05 1192.67C-6.28673e-05 1191 -6.28314e-05 1190.18 -6.27587e-05 1188.52C157.161 1189.42 306.793 1222.15 462.175 1232.81C599.846 1242.25 720.042 1225.27 839.815 1179.53C1026.78 1108.13 1243.48 1184.1 1439.98 1188.52C1439.98 1190.18 1439.98 1191 1439.98 1192.67C1242.23 1188.39 1023.82 1114.06 835.232 1184.01C715.451 1228.45 596.466 1245.15 459.626 1235.92C305.141 1225.51 156.179 1193.58 -6.29405e-05 1192.67Z" fill="url(#paint26_radial)"/>
<path d="M-6.30329e-05 1183.66C-6.29578e-05 1181.94 -6.29204e-05 1181.08 -6.28457e-05 1179.38C159.347 1180.29 310.452 1214.74 467.859 1225.95C607.334 1235.89 730.41 1218.29 850.073 1169.67C1033.44 1095.18 1246.19 1174.63 1439.98 1179.38C1439.98 1181.09 1439.98 1181.95 1439.98 1183.66C1244.95 1179.08 1030.29 1101.26 845.245 1174.31C725.514 1221.57 603.81 1238.89 465.182 1229.18C308.724 1218.21 158.305 1184.58 -6.30329e-05 1183.66Z" fill="url(#paint27_radial)"/>
<path d="M-6.31289e-05 1174.38C-6.30516e-05 1172.61 -6.30124e-05 1171.72 -6.29356e-05 1169.96C161.642 1170.87 314.314 1207.13 473.839 1218.9C615.076 1229.32 741.464 1211.09 860.847 1159.5C1040.58 1081.84 1248.88 1164.85 1439.98 1169.96C1439.98 1171.72 1439.98 1172.61 1439.98 1174.38C1247.63 1169.44 1037.2 1088.11 855.765 1164.28C736.229 1214.47 611.434 1232.4 471.018 1222.21C312.502 1210.71 160.558 1175.3 -6.31289e-05 1174.38Z" fill="url(#paint28_radial)"/>
<path d="M-6.32231e-05 1164.81C-6.31433e-05 1162.98 -6.31039e-05 1162.08 -6.30238e-05 1160.25C164.048 1161.17 318.355 1199.25 480.107 1211.59C623.106 1222.51 753.179 1203.66 872.13 1149.01C1050.34 1067.13 1249.74 1157.36 1439.98 1160.25C1439.98 1162.07 1439.98 1162.97 1439.98 1164.81C1250.3 1159.49 1044.58 1074.56 866.819 1153.94C747.639 1207.15 619.337 1225.7 477.151 1215.03C316.449 1202.96 162.913 1165.71 -6.32231e-05 1164.81Z" fill="url(#paint29_radial)"/>
<path d="M-6.33253e-05 1154.95C-6.3243e-05 1153.06 -6.32016e-05 1152.12 -6.31199e-05 1150.25C166.564 1151.15 322.565 1191.15 486.63 1204.08C631.365 1215.49 765.554 1196 883.887 1138.19C1058.44 1052.9 1252.32 1147.08 1439.97 1150.25C1439.97 1152.12 1439.97 1153.07 1439.97 1154.95C1251.11 1151.95 1054.62 1059.56 878.339 1143.28C759.701 1199.62 627.468 1218.8 483.546 1207.62C320.583 1194.96 165.378 1155.86 -6.33253e-05 1154.95Z" fill="url(#paint30_radial)"/>
<path d="M-6.34303e-05 1144.77C-6.33456e-05 1142.83 -6.33032e-05 1141.86 -6.32187e-05 1139.93C169.189 1140.85 326.944 1182.79 493.423 1196.34C639.852 1208.25 778.607 1188.09 896.118 1127.02C1067.07 1038.2 1254.78 1136.56 1439.98 1139.93C1439.98 1141.87 1439.98 1142.84 1439.98 1144.77C1253.68 1141.45 1062.94 1045.12 890.375 1132.27C772.449 1191.8 635.871 1211.66 490.229 1199.98C324.877 1186.72 167.953 1145.69 -6.34303e-05 1144.77Z" fill="url(#paint31_radial)"/>
<path d="M-6.35393e-05 1134.28C-6.34521e-05 1132.29 -6.34085e-05 1131.29 -6.33213e-05 1129.3C171.9 1130.21 331.476 1174.15 500.453 1188.34C648.526 1200.77 792.304 1179.89 908.773 1115.5C1075.96 1023.09 1257.24 1125.56 1439.98 1129.29C1439.98 1131.28 1439.98 1132.28 1439.98 1134.28C1256.1 1130.73 1071.76 1030.17 902.835 1120.91C785.833 1183.74 644.46 1204.28 497.15 1192.09C329.349 1178.21 170.629 1135.2 -6.35393e-05 1134.28Z" fill="url(#paint32_radial)"/>
<path d="M-6.36514e-05 1123.48C-6.35615e-05 1121.42 -6.35162e-05 1120.38 -6.34263e-05 1118.33C174.721 1119.24 336.134 1165.27 507.704 1180.1C657.395 1193.03 806.585 1171.45 921.835 1103.64C1085.26 1007.49 1259.6 1114.29 1439.99 1118.33C1439.99 1120.38 1439.99 1121.42 1439.99 1123.48C1258.5 1119.6 1080.92 1014.81 915.711 1109.22C799.851 1175.42 653.244 1196.67 504.307 1183.97C333.949 1169.43 173.399 1124.4 -6.36514e-05 1123.48Z" fill="url(#paint33_radial)"/>
<path d="M-6.38491e-05 1112.33C-6.37562e-05 1110.2 -6.37102e-05 1109.15 -6.36173e-05 1107.02C177.609 1107.95 340.912 1156.11 515.124 1171.6C666.373 1185.06 821.417 1162.69 935.21 1091.41C1001.75 1049.72 1071.53 1039.65 1160.14 1054.28C1253.78 1069.73 1342 1104.65 1439.98 1107.02C1439.98 1109.15 1439.98 1110.2 1439.98 1112.33C1341.15 1110.03 1251.67 1075.87 1156.97 1060.76C1068.18 1046.61 996.621 1055.97 928.924 1097.15C814.437 1166.8 662.172 1188.8 511.643 1175.6C338.676 1160.41 176.254 1113.25 -6.38491e-05 1112.33Z" fill="url(#paint34_radial)"/>
<path d="M-6.39835e-05 1100.84C-6.38877e-05 1098.65 -6.38402e-05 1097.56 -6.37444e-05 1095.37C180.574 1096.27 345.791 1146.65 522.705 1162.85C675.496 1176.84 836.74 1153.59 948.864 1078.8C1012.92 1036.06 1078.8 1024.36 1167.1 1040.04C1258.4 1056.25 1343.82 1092.77 1439.99 1095.37C1439.99 1097.56 1439.99 1098.65 1439.99 1100.84C1342.96 1098.33 1256.26 1062.57 1163.84 1046.71C1075.41 1031.55 1007.69 1042.45 942.46 1084.71C829.549 1157.86 671.244 1180.69 519.156 1166.95C343.512 1151.09 179.185 1101.75 -6.39835e-05 1100.84Z" fill="url(#paint35_radial)"/>
<path d="M-6.41221e-05 1088.99C-6.40236e-05 1086.74 -6.39743e-05 1085.61 -6.38753e-05 1083.35C183.598 1084.27 350.72 1136.91 530.388 1153.82C684.678 1168.36 852.444 1144.17 962.688 1065.82C1024.17 1022.13 1086.05 1008.54 1174.1 1025.35C1263.03 1042.35 1345.65 1080.59 1439.98 1083.35C1439.98 1085.61 1439.98 1086.74 1439.98 1088.99C1344.79 1086.3 1260.87 1048.87 1170.83 1032.24C1082.69 1015.97 1018.91 1028.66 956.225 1071.92C845.101 1148.61 680.392 1172.33 526.805 1158.06C348.416 1141.49 182.183 1089.91 -6.41221e-05 1088.99Z" fill="url(#paint36_radial)"/>
<path d="M-6.42645e-05 1076.78C-6.41631e-05 1074.46 -6.41121e-05 1073.29 -6.40106e-05 1070.97C186.664 1071.91 355.676 1126.87 538.122 1144.55C693.894 1159.63 868.471 1134.41 976.639 1052.45C1035.43 1007.9 1093.29 992.178 1181.18 1010.24C1267.67 1028.02 1347.48 1068 1439.99 1070.97C1439.99 1073.29 1439.99 1074.46 1439.99 1076.78C1346.62 1073.88 1265.53 1034.74 1177.89 1017.33C1089.94 999.863 1030.2 1014.56 970.15 1058.72C860.991 1139 689.616 1163.73 534.53 1148.91C353.372 1131.58 185.233 1077.71 -6.42645e-05 1076.78Z" fill="url(#paint37_radial)"/>
<path d="M-6.44597e-05 1064.2C-6.43548e-05 1061.8 -6.43023e-05 1060.6 -6.41977e-05 1058.21C189.756 1059.14 360.614 1116.54 545.838 1134.99C703.11 1150.65 884.632 1124.26 990.564 1038.71C1017.15 1017.23 1039.37 996.714 1081.9 988.921C1117.26 982.442 1154.16 987.141 1188.21 994.668C1272.28 1013.26 1349.24 1055 1439.98 1058.21C1439.98 1060.61 1439.98 1061.81 1439.98 1064.2C1348.43 1061.11 1270.14 1020.19 1184.95 1001.98C1150.32 994.589 1112.96 990.009 1077.12 996.359C1034.48 1003.91 1011.26 1023.87 984.093 1045.15C877.085 1129.04 698.841 1154.86 542.264 1139.47C358.319 1121.4 188.316 1065.14 -6.44597e-05 1064.2Z" fill="url(#paint38_radial)"/>
<path d="M-6.46111e-05 1051.22C-6.45032e-05 1048.75 -6.44491e-05 1047.51 -6.43407e-05 1045.03C192.856 1046 365.485 1105.89 553.487 1125.14C712.266 1141.41 900.819 1113.71 1004.35 1024.55C1029.73 1002.69 1049.78 980.949 1092.1 972.593C1126.4 965.814 1162.35 970.812 1195.19 978.622C1276.8 998.01 1350.98 1041.63 1439.98 1045.02C1439.98 1047.5 1439.98 1048.74 1439.98 1051.21C1350.18 1047.91 1274.69 1005.17 1191.96 986.149C1158.56 978.469 1122.16 973.613 1087.36 980.25C1044.94 988.341 1023.89 1009.5 997.942 1031.18C893.289 1118.68 708.006 1145.74 549.929 1129.76C363.231 1110.9 191.416 1052.16 -6.46111e-05 1051.22Z" fill="url(#paint39_radial)"/>
<path d="M-6.47653e-05 1037.83C-6.46543e-05 1035.29 -6.45984e-05 1034.01 -6.44868e-05 1031.46C195.931 1032.46 370.228 1094.95 560.95 1115.03C639.318 1123.29 719.695 1122.87 795.98 1107.11C876.035 1090.57 967.838 1055.93 1017.83 1010.01C1042.03 987.8 1059.92 964.766 1102.05 955.796C1135.32 948.731 1170.32 954.033 1201.96 962.113C1281.14 982.34 1352.64 1027.82 1439.98 1031.47C1439.98 1034.02 1439.98 1035.3 1439.98 1037.84C1351.89 1034.32 1279.13 989.704 1198.84 969.871C1166.62 961.915 1131.19 956.754 1097.45 963.685C1055.24 972.356 1036.34 994.781 1011.6 1016.83C909.4 1107.91 717.094 1136.39 557.494 1119.78C368.051 1100.08 194.491 1038.8 -6.47653e-05 1037.83Z" fill="url(#paint40_radial)"/>
<path d="M-3.88855e-06 1024.05C-3.77353e-06 1021.42 -3.71639e-06 1020.11 -3.60138e-06 1017.48C198.938 1018.5 374.785 1083.65 568.141 1104.62C647.552 1113.24 729.055 1112.77 806.23 1096.36C887.097 1079.16 982.204 1042.67 1030.85 995.063C1053.92 972.503 1069.7 948.139 1111.63 938.521C1143.91 931.123 1177.99 936.769 1208.48 945.125C1285.28 966.153 1354.2 1013.61 1439.98 1017.48C1439.98 1020.11 1439.98 1021.42 1439.98 1024.05C1353.49 1020.3 1283.38 973.759 1205.49 953.103C1174.47 944.871 1139.96 939.389 1107.23 946.635C1065.19 955.943 1048.45 979.681 1024.85 1002.09C975.572 1048.91 881.998 1084.53 801.512 1101.41C724.735 1117.52 643.757 1117.96 564.829 1109.52C372.693 1088.96 197.549 1025.07 -3.88855e-06 1024.05Z" fill="url(#paint41_radial)"/>
<path d="M-4.04941e-06 1009.83C-3.93119e-06 1007.13 -3.87134e-06 1005.76 -3.75313e-06 1003.05C201.877 1004.15 379.063 1072.04 574.951 1093.94C655.362 1102.92 737.94 1102.4 815.962 1085.33C897.66 1067.44 995.943 1028.96 1043.21 979.715C1065.18 956.811 1078.91 931.061 1120.68 920.761C1152.03 913.037 1185.23 919.009 1214.62 927.63C1289.1 949.474 1355.65 998.984 1439.97 1003.06C1439.97 1005.77 1439.97 1007.13 1439.97 1009.84C1355.01 1005.85 1287.35 957.323 1211.81 935.839C1181.93 927.354 1148.31 921.533 1116.55 929.106C1074.69 939.079 1060.01 964.18 1037.55 986.927C989.641 1035.41 892.806 1072.94 811.507 1090.5C733.875 1107.28 651.787 1107.77 571.826 1098.97C377.115 1077.48 200.522 1010.87 -4.04941e-06 1009.83Z" fill="url(#paint42_radial)"/>
<path d="M-4.21356e-06 995.17C-4.0914e-06 992.375 -4.03032e-06 990.978 -3.90816e-06 988.183C204.672 989.338 382.993 1060.08 581.245 1082.94C662.57 1092.33 746.182 1091.76 824.958 1074C907.477 1055.39 1008.74 1014.82 1054.62 963.961C1075.6 940.708 1087.37 913.527 1129 902.489C1159.49 894.409 1191.9 900.759 1220.23 909.634C1292.56 932.284 1356.92 983.873 1439.97 988.183C1439.97 990.978 1439.97 992.375 1439.97 995.17C1356.34 990.933 1291.02 940.364 1217.68 918.08C1188.87 909.318 1156.09 903.148 1125.22 911.059C1083.53 921.742 1070.84 948.263 1049.42 971.353C1002.9 1021.47 902.988 1061.03 820.867 1079.31C742.43 1096.75 659.283 1097.29 578.373 1088.1C381.214 1065.7 203.393 996.302 -4.21356e-06 995.17Z" fill="url(#paint43_radial)"/>
<path d="M-4.37962e-06 980.058C-4.25352e-06 977.174 -4.19047e-06 975.731 -4.06462e-06 972.852C207.315 974.097 386.449 1047.8 586.861 1071.67C669.033 1081.47 753.543 1080.84 833.005 1062.39C916.422 1043.02 1020.33 1000.25 1064.88 947.807C1084.95 924.182 1094.9 895.536 1136.4 883.738C1166.13 875.286 1197.85 881.997 1225.24 891.13C1295.6 914.581 1357.99 968.271 1439.98 972.852C1439.98 975.737 1439.98 977.174 1439.98 980.058C1357.53 975.59 1294.27 922.897 1223.01 899.813C1195.19 890.798 1163.16 884.262 1133.08 892.539C1091.54 903.982 1080.75 931.935 1060.27 955.374C1015.12 1007.09 912.382 1048.82 829.38 1067.83C750.231 1085.96 666.136 1086.56 584.337 1076.97C384.899 1053.56 206.104 981.247 -4.37962e-06 980.058Z" fill="url(#paint44_radial)"/>
<path d="M-4.54813e-06 964.479C-4.41833e-06 961.51 -4.35331e-06 960.022 -4.22352e-06 957.053C209.721 958.394 389.338 1035.15 591.638 1060.11C674.522 1070.33 759.862 1069.66 839.857 1050.51C889.063 1038.72 934.354 1020.72 975.25 999.136C1009.6 981.01 1054.33 958.197 1073.63 931.247C1090.99 907.036 1102.15 876.762 1142.61 864.468C1171.72 855.633 1202.81 862.715 1229.4 872.102C1298.03 896.336 1358.82 952.275 1439.98 957.047C1439.98 960.017 1439.98 961.504 1439.98 964.473C1358.47 959.797 1296.96 904.906 1227.58 881.022C1200.62 871.759 1169.26 864.857 1139.88 873.505C1099.4 885.422 1087.5 914.969 1069.77 939.006C1050.18 965.538 1005.91 987.845 971.701 1005.64C930.873 1026.87 885.742 1044.52 836.834 1056.07C757.075 1074.89 672.108 1075.54 589.538 1065.53C388.059 1041.1 208.637 965.775 -4.54813e-06 964.479Z" fill="url(#paint45_radial)"/>
<path d="M-4.66797e-06 948.41C-4.53424e-06 945.35 -4.46749e-06 943.823 -4.33376e-06 940.764C211.855 942.251 391.481 1022.16 595.357 1048.25C678.825 1058.92 764.826 1058.22 845.211 1038.34C894.992 1026.04 940.572 1007.26 981.586 984.921C1016.21 966.046 1061.78 942.133 1080.55 914.293C1112.77 866.53 1144.66 819.827 1232.56 852.546C1299.77 877.557 1359.32 935.761 1439.98 940.758C1439.98 943.818 1439.98 945.345 1439.98 948.404C1359.13 943.519 1299.04 886.369 1231.22 861.719C1205.01 852.191 1174.19 844.928 1145.37 853.971C1104.91 866.671 1094.53 897.79 1077.59 922.232C1058.57 949.655 1013.37 973.066 978.875 991.575C937.895 1013.56 892.434 1031.99 842.915 1044.03C762.691 1063.57 676.987 1064.26 593.764 1053.8C390.566 1028.27 210.898 949.852 -4.66797e-06 948.41Z" fill="url(#paint46_radial)"/>
<path d="M-4.88866e-06 931.85C-4.75098e-06 928.7 -4.68177e-06 927.117 -4.54385e-06 923.962C213.634 925.635 392.768 1008.82 597.805 1036.1C681.68 1047.25 768.18 1046.5 848.785 1025.92C899.066 1013.08 944.824 993.507 985.838 970.401C1020.76 950.736 1066.88 925.686 1085.21 896.956C1101.27 871.798 1109.74 838.313 1150.39 824.435C1178.72 814.761 1209.01 822.553 1234.47 832.47C1300.65 858.242 1359.48 918.834 1439.98 923.962C1439.98 927.123 1439.98 928.706 1439.98 931.85C1359.46 926.796 1300.34 867.307 1233.74 841.896C1208.09 832.103 1177.68 824.474 1149.23 833.94C1108.67 847.44 1099.64 880.171 1083.34 905.086C1064.82 933.399 1018.92 957.92 984.144 977.201C943.113 999.959 897.423 1019.15 847.362 1031.74C766.825 1051.99 680.561 1052.73 596.839 1041.8C392.285 1015.09 212.855 933.444 -4.88866e-06 931.85Z" fill="url(#paint47_radial)"/>
<path d="M-5.01174e-06 914.789C-4.86938e-06 911.533 -4.79821e-06 909.904 -4.65585e-06 906.647C214.998 908.529 393.005 995.114 598.728 1023.66C682.815 1035.32 769.578 1034.53 850.183 1013.23C900.87 999.835 946.696 979.444 987.6 955.577C1022.82 935.028 1069.21 908.862 1087.18 879.236C1116.13 831.484 1144.67 775.354 1234.95 811.854C1300.61 838.398 1359.14 901.368 1439.99 906.648C1439.99 909.904 1439.99 911.533 1439.99 914.789C1359.35 909.561 1300.77 847.706 1234.93 821.523C1145.33 785.902 1116.21 839.846 1086.63 887.53C1068.51 916.739 1022.21 942.387 987.117 962.519C946.153 986.037 900.345 1006.03 849.836 1019.17C769.197 1040.15 682.527 1040.92 598.516 1029.5C393.039 1001.55 214.413 916.553 -5.01174e-06 914.789Z" fill="url(#paint48_radial)"/>
<path d="M-5.183e-06 897.181C-5.03621e-06 893.823 -4.96306e-06 892.15 -4.81652e-06 888.797C215.853 890.933 392.014 981.05 597.822 1010.94C681.857 1023.14 768.663 1022.32 848.997 1000.3C899.972 986.324 945.713 965.082 986.363 940.454C1021.85 918.953 1068.22 891.66 1085.93 861.144C1113.82 813.009 1141.56 752.438 1233.66 790.691C1299.37 817.995 1358.27 883.473 1439.97 888.797C1439.97 892.156 1439.97 893.829 1439.97 897.181C1358.73 891.868 1300.09 827.568 1234.48 800.613C1143.29 763.161 1115.27 821.708 1086.92 869.612C1069.12 899.711 1022.68 926.486 987.329 947.525C946.526 971.804 900.752 992.646 849.878 1006.34C769.391 1028.04 682.56 1028.85 598.465 1016.9C392.65 987.642 215.515 899.187 -5.183e-06 897.181Z" fill="url(#paint49_radial)"/>
<path d="M-5.35322e-06 879.039C-5.20224e-06 875.585 -5.12663e-06 873.855 -4.97566e-06 870.401C216.116 872.846 389.566 966.603 594.764 997.948C678.469 1010.73 764.995 1009.88 844.787 987.129C895.924 972.548 941.385 950.438 981.62 925.061C1017.36 902.512 1063.29 874.12 1080.87 842.702C1108.21 793.75 1135.84 729.123 1230.3 768.992C1296.85 797.075 1356.74 865.076 1439.98 870.401C1439.98 873.855 1439.98 875.585 1439.98 879.039C1357.55 873.714 1298.2 806.878 1232.14 779.168C1138.87 740.037 1111.29 802.827 1083.73 851.34C1066.13 882.34 1019.94 910.225 984.322 932.267C943.875 957.301 898.245 978.993 847.176 993.288C767.088 1015.71 680.384 1016.54 596.492 1004.03C390.896 973.381 216.082 881.337 -5.35322e-06 879.039Z" fill="url(#paint50_radial)"/>
<path d="M-6.65571e-05 860.338C-6.64012e-05 856.771 -6.63234e-05 854.991 -6.61675e-05 851.424C215.684 854.253 385.399 951.796 589.19 984.667C672.201 998.06 758.109 997.193 837.011 973.731C888.114 958.535 933.134 935.524 972.751 909.397C1008.67 885.716 1053.78 856.242 1071.34 823.923C1098.66 773.585 1127.06 705.436 1224.54 746.737C1292.77 775.647 1354.41 846.167 1439.99 851.424C1439.99 854.991 1439.99 856.772 1439.99 860.338C1355.6 855.036 1294.87 785.693 1227.55 757.177C1131.58 716.514 1103.65 783.096 1076.37 832.712C1058.84 864.603 1013.29 893.581 977.435 916.722C937.514 942.505 892.247 965.088 841.111 979.996C761.751 1003.12 675.504 1003.99 592.121 990.882C387.576 958.743 215.98 862.981 -6.65571e-05 860.338Z" fill="url(#paint51_radial)"/>
<path d="M-6.67217e-05 841.057C-6.65611e-05 837.383 -6.64803e-05 835.535 -6.63195e-05 831.855C214.413 835.135 379.258 936.611 580.66 971.144C662.595 985.197 747.47 984.318 825.051 960.152C875.959 944.285 920.259 920.361 959.054 893.519C995.087 868.569 1038.91 838.053 1056.62 804.844C1084.54 752.404 1114.67 681.461 1215.96 723.95C1255.91 740.713 1289.03 764.225 1324.09 785.039C1356.18 804.078 1394.77 829.269 1440 831.861C1440 835.535 1440 837.389 1440 841.062C1395.61 838.42 1357.81 813.594 1326.36 794.843C1292 774.339 1259.52 751.176 1220.34 734.633C1120.95 692.674 1091.74 762.411 1064.18 813.769C1046.58 846.573 1002.09 876.604 966.093 900.951C926.866 927.461 882.218 950.956 831.175 966.507C752.942 990.341 667.525 991.237 585.031 977.489C382.4 943.733 215.116 844.099 -6.67217e-05 841.057Z" fill="url(#paint52_radial)"/>
<path d="M-5.84644e-06 821.173C-5.68093e-06 817.386 -5.59817e-06 815.493 -5.43218e-06 811.696C212.203 815.516 370.838 921.049 568.717 957.374C649.11 972.142 732.477 971.229 808.254 946.381C858.73 929.833 902.039 904.94 939.758 877.416C975.809 851.103 1017.83 819.573 1035.83 785.462C1065.05 730.109 1098.11 657.222 1204.08 700.618C1246.07 717.809 1280.99 742.116 1317.91 763.578C1351.86 783.332 1392.57 809.245 1439.97 811.701C1439.97 815.499 1439.97 817.392 1439.97 821.179C1393.65 818.66 1354.02 793.063 1321.01 773.646C1285.04 752.495 1251.01 728.548 1210.04 711.561C1106.36 668.559 1074.85 740.646 1046.31 794.533C1028.48 828.233 985.541 859.284 949.474 884.949C911.221 912.163 867.412 936.594 816.708 952.816C740.024 977.359 655.904 978.261 574.723 963.831C375.073 928.351 213.363 824.717 -5.84644e-06 821.173Z" fill="url(#paint53_radial)"/>
<path d="M-6.00031e-06 800.681C-5.82963e-06 796.776 -5.74441e-06 794.826 -5.57373e-06 790.922C208.874 795.367 359.801 905.132 552.826 943.384C631.145 958.901 712.427 957.988 785.892 932.475C835.656 915.189 877.661 889.316 914.025 861.144C949.889 833.355 989.616 800.816 1008.1 765.843C1039.36 706.625 1076.87 632.774 1188.48 676.757C1233.07 694.325 1270.42 719.449 1309.77 741.57C1346.3 762.096 1389.78 788.662 1439.99 790.927C1439.99 794.832 1439.99 796.782 1439.99 800.686C1391.17 798.331 1349.07 772.052 1313.84 751.903C1275.71 730.081 1239.55 705.34 1196.26 687.947C1087.4 644.19 1052.16 717.736 1021.96 775.027C1003.73 809.605 962.849 841.671 926.875 868.756C889.85 896.641 847.184 922.041 797.056 938.978C722.439 964.192 640.123 965.104 560.763 949.937C365.29 912.592 210.576 804.822 -6.00031e-06 800.681Z" fill="url(#paint54_radial)"/>
<path d="M-6.21e-06 779.551C-6.03391e-06 775.523 -5.94598e-06 773.511 -5.76989e-06 769.482C204.274 774.711 345.757 888.82 532.396 929.174C608.029 945.525 686.575 944.578 757.084 918.446C849.412 884.233 937.166 811.82 972.302 746.015C990.878 711.217 1004.88 664.755 1057.65 644.561C1094.29 630.543 1134.3 639.575 1168.5 652.36C1216.31 670.232 1256.99 696.122 1299.34 718.987C1339.07 740.437 1386.41 767.494 1439.98 769.488C1439.98 773.517 1439.98 775.528 1439.98 779.557C1388.14 777.444 1342.54 750.613 1304.51 729.585C1263.71 707.025 1224.59 681.529 1178.37 663.797C1145.62 651.227 1107.07 642.127 1071.73 655.847C1020.46 675.748 1008.02 721.421 990.048 755.278C955.319 820.733 863.388 891.947 771.357 924.993C699.383 950.844 619.481 951.779 542.509 935.822C352.703 896.46 206.595 784.408 -6.21e-06 779.551Z" fill="url(#paint55_radial)"/>
<path d="M-6.35295e-06 757.774C-6.17168e-06 753.627 -6.0808e-06 751.548 -5.89879e-06 747.384C198.184 753.571 328.35 872.17 506.747 914.778C703.77 961.836 864.93 840.375 927.298 726.013C947.5 688.961 965.627 640.848 1022.07 620.063C1062.04 605.34 1105.71 614.209 1143.55 627.45C1239.04 660.862 1325.89 744.083 1439.98 747.384C1439.98 751.542 1439.98 753.627 1439.98 757.774C1384.21 755.937 1334.64 728.633 1292.74 706.692C1248.39 683.473 1205.69 657.149 1155.84 639.124C1119.79 626.103 1077.94 617.144 1039.6 631.529C984.957 652.044 968.888 699.396 949.499 735.349C913.813 801.52 831.294 875.275 738.745 910.929C670.1 937.372 593.298 938.33 519.393 921.505C336.897 879.985 201.225 763.476 -6.35295e-06 757.774Z" fill="url(#paint56_radial)"/>
<path d="M-6.48497e-06 735.315C-6.29779e-06 731.033 -6.20445e-06 728.898 -6.01727e-06 724.616C190.357 731.946 307.157 855.177 475.161 900.218C672.421 953.097 811.634 812.918 871.766 705.887C894.035 666.26 917.591 616.496 978.307 595.198C1022.41 579.726 1070.58 588.358 1112.93 602.05C1223.36 637.755 1312.32 716.598 1439.98 724.621C1439.98 728.903 1439.98 731.039 1439.98 735.321C1320.63 732.414 1228.81 647.846 1127.95 613.955C1087.81 600.472 1041.85 591.722 999.78 606.833C941.148 627.901 920.285 676.903 899.041 715.291C837.731 826.064 688.1 957.064 490.67 907.025C317.525 863.127 194.245 742.094 -6.48497e-06 735.315Z" fill="url(#paint57_radial)"/>
<path d="M-6.60643e-06 712.169C-6.41358e-06 707.757 -6.31679e-06 705.543 -6.12395e-06 701.131C180.43 709.893 281.822 837.907 436.764 885.524C631.356 945.3 747.783 782.419 804.197 685.71C829.049 643.108 859.585 591.75 925.215 569.99C974.182 553.757 1028.22 561.882 1075.79 576.154C1198.48 612.947 1300.33 693.88 1439.97 701.131C1439.97 705.543 1439.97 707.758 1439.97 712.169C1306.28 704.557 1210.46 624.678 1093.96 588.285C1048.99 574.238 997.722 565.928 951.185 581.783C887.936 603.335 860.856 653.96 837.282 695.125C778.887 797.063 651.855 948.81 455.56 892.387C294.172 845.987 185.343 720.204 -6.60643e-06 712.169Z" fill="url(#paint58_radial)"/>
<path d="M-6.68021e-06 688.302C-6.48145e-06 683.755 -6.38195e-06 681.478 -6.18295e-06 676.926C168.224 687.496 252.853 820.254 391.946 870.429C579.203 937.975 674.48 749.232 725.209 666.074C753.264 620.103 792.338 567.612 863.346 545.283C918.074 528.075 978.74 535.896 1032.59 550.455C1170.2 587.648 1286.16 670.666 1439.98 676.926C1439.98 681.478 1439.98 683.755 1439.98 688.302C1292.79 681.49 1183.58 599.278 1053.03 562.147C1002.09 547.661 944.705 539.711 892.62 556.417C824.094 578.402 789.102 630.6 762.632 674.942C709.082 764.671 604.539 941.569 413.165 877.636C266.498 828.633 174.102 697.942 -6.68021e-06 688.302Z" fill="url(#paint59_radial)"/>
<path d="M-6.00952e-06 663.696C-5.80461e-06 659.008 -5.70215e-06 656.664 -5.49699e-06 651.971C162.193 666.012 241.214 795.722 374.006 847.159C552.996 916.491 641.606 735.845 692.954 657.132C723.38 610.485 767.087 559.696 839.265 537.26C895.924 519.646 958.876 525.382 1016.1 538.55C1159.53 571.556 1282.89 649.345 1439.97 651.971C1439.97 656.664 1439.97 659.008 1439.97 663.696C1284.33 659.448 1164.32 579.23 1023.51 544.308C967.796 530.487 905.868 523.816 850.081 541.266C778.413 563.691 736.822 615.257 707.481 661.634C656.429 742.325 564.846 926.852 382.07 858.259C246.466 807.363 164.946 676.176 -6.00952e-06 663.696Z" fill="url(#paint60_radial)"/>
<path d="M-5.3965e-06 638.335C-5.18519e-06 633.501 -5.07953e-06 631.084 -4.86796e-06 626.244C84.1882 635.405 143.515 681.146 198.802 720.987C247.923 756.365 296.103 796.195 358.395 821.77C529.693 892.093 612.645 720.48 664.798 645.452C697.443 598.494 745.394 549.424 818.402 527.084C876.848 509.194 941.749 513.161 1001.87 524.959C1150.21 554.072 1280.22 626.7 1439.99 626.244C1439.99 631.078 1439.99 633.495 1439.99 638.335C1281.4 637.417 1154.38 562.395 1008.23 531.507C949.398 519.071 885.369 514.316 827.711 532.098C755.068 554.506 709.031 604.382 677.402 651.238C625.673 727.889 540.171 903.83 365.383 833.861C301.939 808.473 252.734 768.361 202.682 732.814C146.218 692.725 85.5858 646.776 -5.3965e-06 638.335Z" fill="url(#paint61_radial)"/>
<path d="M-4.84035e-06 612.186C-4.62238e-06 607.2 -4.51352e-06 604.709 -4.29531e-06 599.717C151.596 619.252 222.41 741.541 345.164 794.212C509.441 864.71 587.572 703.008 640.843 630.96C675.547 584.025 727.285 536.758 800.792 514.694C860.847 496.663 927.383 499.16 989.904 509.628C1142.29 535.147 1278.11 602.737 1439.98 599.717C1439.98 604.709 1439.98 607.2 1439.98 612.186C1279.01 614.057 1145.8 544.15 995.181 516.987C933.736 505.904 867.912 502.766 808.584 520.739C735.272 542.956 685.237 591.074 651.474 638.065C598.77 711.397 518.479 877.855 351.025 807.324C289.987 781.614 242.84 742.173 194.72 707.002C140.644 667.499 82.672 622.086 -4.84035e-06 612.186Z" fill="url(#paint62_radial)"/>
<path d="M-4.34162e-06 585.225C-4.117e-06 580.087 -4.00469e-06 577.517 -3.78008e-06 572.379C145.066 593.401 214.43 709.465 330.256 762.575C483.021 832.611 560.264 696.314 612.882 623.985C650.711 571.979 711.352 520.114 793.854 497.993C855.299 481.518 922.436 483.822 985.897 493.35C1139.15 516.339 1278.65 577.478 1439.97 572.379C1439.97 577.517 1439.97 580.087 1439.97 585.225C1279.28 589.423 1141.87 526.069 990.031 501.599C927.408 491.508 860.839 488.64 799.995 505.104C717.349 527.467 658.699 580.436 621.641 632.605C569.581 705.898 490.602 847.3 334.915 776.723C217.514 723.494 147.09 605.447 -4.34162e-06 585.225Z" fill="url(#paint63_radial)"/>
<path d="M-3.89715e-06 557.436C-3.66564e-06 552.14 -3.54988e-06 549.492 -3.31812e-06 544.19C141.118 566.525 208.967 678.047 322.056 730.537C469.096 798.799 543.153 673.939 597.322 603.289C636.701 551.926 701.212 502.517 783.19 481.045C845.71 464.665 913.788 465.933 978.756 474.317C1134.38 494.381 1277.72 550.895 1439.98 544.19C1439.98 549.486 1439.98 552.134 1439.98 557.436C1278.09 563.454 1136.4 504.805 981.78 483.411C917.473 474.514 849.793 472.785 787.755 489.226C705.482 511.031 642.69 561.606 604.022 613.307C550.633 684.69 475.194 814.93 325.572 745.745C211.296 692.916 142.906 579.247 -3.89715e-06 557.436Z" fill="url(#paint64_radial)"/>
<path d="M-3.46623e-06 528.785C-3.22758e-06 523.326 -3.10813e-06 520.593 -2.86948e-06 515.133C138.162 538.229 204.317 645.165 316.288 696.218C357.421 714.981 403.991 724.864 450.63 708.524C523.535 682.977 549.972 624.3 586.192 579.597C666.568 480.397 809.787 435.203 973.954 453.453C1131.11 470.926 1277.4 523.033 1439.98 515.133C1439.98 520.593 1439.98 523.326 1439.98 528.786C1277.49 536.189 1132.43 482.048 975.893 463.409C810.524 443.711 669.846 490.911 590.825 591.018C535.623 660.947 462.963 779.467 318.668 712.502C206.688 660.535 139.238 551.566 -3.46623e-06 528.785Z" fill="url(#paint65_radial)"/>
<path d="M-3.13416e-06 499.244C-2.88812e-06 493.615 -2.76497e-06 490.798 -2.51893e-06 485.169C135.197 508.332 202.182 610.09 312.959 659.572C353.431 677.653 399.494 687.727 445.751 672.756C516.742 649.779 543.212 595.029 579.458 552.878C662.638 456.146 810.406 415.235 971.489 430.74C1129.37 445.937 1277.68 493.846 1439.98 485.169C1439.98 490.798 1439.98 493.615 1439.98 499.244C1277.49 507.611 1130 457.78 972.353 441.559C809.762 424.824 663.951 467.731 582.058 565.702C545.847 609.02 519.47 665.612 447.606 689.772C401.188 705.38 354.93 695.339 314.213 676.943C202.97 626.661 136.51 522.475 -3.13416e-06 499.244Z" fill="url(#paint66_radial)"/>
<path d="M-2.85061e-06 468.795C-2.59693e-06 462.992 -2.47009e-06 460.09 -2.21642e-06 454.287C132.741 476.937 201.657 573.19 312.019 620.604C352.33 637.919 398.198 647.88 444.252 634.2C513.464 613.651 540.502 562.952 577.044 523.156C662.9 429.619 813.878 392.979 971.328 406.191C1129.12 419.449 1278.59 463.37 1439.98 454.287C1439.98 460.09 1439.98 462.992 1439.98 468.796C1278.09 477.743 1129.06 431.991 971.125 417.866C811.922 403.628 662.248 442.269 577.636 537.378C541.273 578.256 514.565 630.853 444.54 652.523C398.409 666.795 352.491 656.743 312.163 639.057C201.699 590.617 133.825 491.767 -2.85061e-06 468.795Z" fill="url(#paint67_radial)"/>
<path d="M-2.61255e-06 437.406C-2.35099e-06 431.422 -2.21997e-06 428.425 -1.95866e-06 422.447C130.767 444.032 202.741 534.465 313.374 579.304C353.982 595.756 399.976 605.306 446.005 592.86C513.566 574.593 541.688 528.07 578.78 490.477C667.212 400.85 820.045 368.486 973.378 379.811C1130.34 391.418 1280.05 431.574 1439.98 422.441C1439.98 428.425 1439.98 431.417 1439.98 437.4C1279.29 446.562 1129.6 404.664 972.158 392.331C816.86 380.166 664.705 414.525 577.467 506.067C540.68 544.68 513.108 593.159 444.794 612.473C398.774 625.483 352.872 615.708 312.468 598.838C202.038 552.743 131.631 459.561 -2.61255e-06 437.406Z" fill="url(#paint68_radial)"/>
<path d="M-2.33576e-06 405.042C-2.06607e-06 398.872 -1.9311e-06 395.784 -1.66166e-06 389.62C129.226 409.673 205.359 493.919 316.906 535.699C358.234 551.176 404.618 560.084 450.833 548.787C516.835 532.656 546.474 490.415 584.447 454.923C794.591 258.541 1157.91 405.408 1439.98 389.615C1439.98 395.784 1439.98 398.872 1439.98 405.036C1281.08 414.046 1131.57 375.833 975.334 364.987C824.39 354.512 671.125 384.594 581.338 471.838C543.814 508.304 514.929 552.546 448.207 569.652C402.111 581.478 355.938 572.244 315.001 556.298C203.952 513.043 129.886 425.855 -2.33576e-06 405.042Z" fill="url(#paint69_radial)"/>
<path d="M-2.21193e-06 371.68C-1.93387e-06 365.319 -1.79496e-06 362.141 -1.5169e-06 355.78C128.108 373.9 209.424 451.554 322.429 489.834C364.841 504.202 411.869 512.282 458.465 502.067C522.976 487.919 554.529 450.016 593.705 416.621C806.365 235.367 1164.07 370.43 1439.98 355.78C1439.98 362.141 1439.98 365.319 1439.98 371.68C1161.15 386.922 800.444 246.382 588.961 434.803C550.378 469.179 519.775 509.104 454.569 524.159C408.176 534.87 361.487 526.385 319.617 511.482C207.349 471.523 128.582 390.742 -2.21193e-06 371.68Z" fill="url(#paint70_radial)"/>
<path d="M-2.11748e-06 337.276C-1.83104e-06 330.724 -1.6877e-06 327.444 -1.40102e-06 320.886C127.371 336.792 214.795 407.397 329.722 441.784C373.523 454.89 421.398 462.023 468.596 452.811C531.642 440.505 565.439 406.957 606.131 375.743C821.459 210.614 1170.54 333.98 1439.98 320.886C1439.98 327.444 1439.98 330.724 1439.98 337.276C1167.49 351.154 814.048 222.334 599.973 395.103C560.018 427.348 527.313 462.924 463.581 476.075C416.697 485.749 369.237 478.16 326.122 464.446C212.135 428.199 127.659 354.253 -2.11748e-06 337.276Z" fill="url(#paint71_radial)"/>
<path d="M-2.04529e-06 301.819C-1.74974e-06 295.058 -1.60197e-06 291.677 -1.30642e-06 284.916C127.006 298.433 221.291 361.499 338.455 391.66C383.883 403.351 432.774 409.448 480.768 401.193C542.357 390.601 578.687 361.369 621.183 332.521C839.273 184.499 1177.15 296.117 1439.98 284.916C1439.98 291.677 1439.98 295.058 1439.98 301.819C1174.05 313.939 830.684 196.833 613.882 352.94C572.249 382.921 537.139 414.158 474.872 425.54C427.277 434.234 378.876 427.647 334.229 415.274C218.14 383.113 127.134 316.474 -2.04529e-06 301.819Z" fill="url(#paint72_radial)"/>
<path d="M-1.96609e-06 265.263C-1.66167e-06 258.299 -1.50897e-06 254.805 -1.20456e-06 247.841C128.565 259.07 231.05 315.319 352.609 340.516C400.603 350.467 451.274 354.822 500.606 346.455C562.364 335.98 599.694 308.203 647.247 282.544C873.155 160.682 1183.25 256.89 1439.98 247.841C1439.98 254.805 1439.98 258.293 1439.98 265.263C1180.11 275.32 864.388 173.579 639.183 303.532C592.384 330.543 556.469 360.361 493.982 371.708C445.183 380.571 395.038 375.782 347.858 365.094C227.424 337.806 128.523 277.658 -1.96609e-06 265.263Z" fill="url(#paint73_radial)"/>
<path d="M-1.90438e-06 227.574C-1.59037e-06 220.39 -1.43323e-06 216.795 -1.11946e-06 209.617C128.963 218.356 239.113 265.877 363.181 286.527C412.945 294.81 464.776 298.235 515.345 290.933C575.493 282.256 616.042 258.811 665.238 236.358C892.823 132.521 1189.55 216.39 1439.98 209.611C1439.98 216.79 1439.98 220.385 1439.98 227.568C1186.72 235.417 883.565 145.711 656.776 258.062C608.342 282.059 569.318 307.51 508.407 317.021C458.44 324.819 407.142 320.965 358.208 311.893C235.327 289.119 128.718 237.457 -1.90438e-06 227.574Z" fill="url(#paint74_radial)"/>
<path d="M5.9208e-05 188.725C5.95318e-05 181.315 5.96937e-05 177.613 6.00175e-05 170.204C129.726 176.577 247.186 214.913 373.811 230.994C425.32 237.536 478.269 240.06 530.168 233.885C588.623 226.932 632.542 207.763 683.323 188.978C912.899 104.067 1194.95 174.774 1439.98 170.204C1439.98 177.614 1439.98 181.321 1439.98 188.725C1192.59 194.308 903.564 117.331 674.963 211.183C624.902 231.738 582.558 252.89 523.307 260.643C472.035 267.347 419.603 264.412 368.898 257.048C243.45 238.843 129.327 196.173 5.9208e-05 188.725Z" fill="url(#paint75_radial)"/>
<path d="M5.9311e-05 148.669C5.96448e-05 141.035 5.98115e-05 137.22 6.01455e-05 129.58C130.818 133.789 254.708 162.586 383.823 174.205C436.916 178.983 490.882 180.662 544.102 175.715C600.837 170.435 648.272 155.673 700.272 140.939C931.449 75.4444 1199.57 132.116 1439.97 129.58C1439.97 137.22 1439.97 141.035 1439.97 148.669C1197.3 152.129 923.41 88.9557 692.598 163.375C641.064 179.986 595.348 196.878 537.783 202.94C485.173 208.479 431.665 206.411 379.283 200.816C251.311 187.13 130.285 153.847 5.9311e-05 148.669Z" fill="url(#paint76_radial)"/>
<path d="M5.94984e-05 107.375C5.98424e-05 99.5034 6.00146e-05 95.565 6.03587e-05 87.6937C132.063 90.032 261.086 109.127 392.421 116.486C506.052 122.853 605.742 113.201 714.698 92.8886C949.474 49.1147 1201.21 88.6121 1439.98 87.6937C1439.98 95.5707 1439.98 99.5035 1439.98 107.375C1200.07 109.009 942.24 61.6852 708.396 115.24C655.65 127.315 606.792 139.97 550.802 144.37C496.93 148.602 442.49 147.323 388.652 143.48C258.299 134.166 131.479 110.553 5.94984e-05 107.375Z" fill="url(#paint77_radial)"/>
<path d="M5.97517e-05 64.8064C6.01064e-05 56.6929 6.02837e-05 52.6361 6.06386e-05 44.5168C133.182 45.4071 265.626 54.7884 398.647 58.2592C509.229 61.1441 615.55 55.8646 724.896 45.6043C961.307 23.4159 1202.58 44.4831 1439.99 44.5169C1439.99 52.6305 1439.99 56.6873 1439.99 64.8065C1202.11 65.1051 956.53 35.1581 720.796 67.4941C611.518 82.4817 508.001 89.8797 396.114 85.4341C263.796 80.1772 132.69 66.3165 5.97517e-05 64.8064Z" fill="url(#paint78_radial)"/>
<path d="M6.01207e-05 20.92C6.04867e-05 12.5473 6.06694e-05 8.36651 6.10349e-05 0.00500838C479.997 0.00502937 959.995 -0.00621852 1439.98 0.00507133C1439.98 8.36657 1439.98 12.553 1439.98 20.9201C1202.86 20.7623 964.823 10.5921 727.929 20.9877C484.758 31.648 243.323 21.5342 6.01207e-05 20.92Z" fill="url(#paint79_radial)"/>
</g>
<defs>
<radialGradient id="paint0_radial" cx="0" cy="0" r="1" gradientUnits="userSpaceOnUse" gradientTransform="translate(719.991 1351) scale(719.992 1.00452)">
<stop/>
<stop offset="1" stop-opacity="0.16"/>
</radialGradient>
<radialGradient id="paint1_radial" cx="0" cy="0" r="1" gradientUnits="userSpaceOnUse" gradientTransform="translate(719.991 1346.9) scale(719.992 1.06958)">
<stop/>
<stop offset="1" stop-opacity="0.16"/>
</radialGradient>
<radialGradient id="paint2_radial" cx="0" cy="0" r="1" gradientUnits="userSpaceOnUse" gradientTransform="translate(719.991 1342.27) scale(719.992 4.01459)">
<stop/>
<stop offset="1" stop-opacity="0.16"/>
</radialGradient>
<radialGradient id="paint3_radial" cx="0" cy="0" r="1" gradientUnits="userSpaceOnUse" gradientTransform="translate(719.991 1337.84) scale(719.992 5.04352)">
<stop/>
<stop offset="1" stop-opacity="0.16"/>
</radialGradient>
<radialGradient id="paint4_radial" cx="0" cy="0" r="1" gradientUnits="userSpaceOnUse" gradientTransform="translate(719.991 1333.27) scale(719.992 6.1026)">
<stop/>
<stop offset="1" stop-opacity="0.16"/>
</radialGradient>
<radialGradient id="paint5_radial" cx="0" cy="0" r="1" gradientUnits="userSpaceOnUse" gradientTransform="translate(719.991 1328.55) scale(719.992 7.18878)">
<stop/>
<stop offset="1" stop-opacity="0.16"/>
</radialGradient>
<radialGradient id="paint6_radial" cx="0" cy="0" r="1" gradientUnits="userSpaceOnUse" gradientTransform="translate(719.991 1323.69) scale(719.992 8.31207)">
<stop/>
<stop offset="1" stop-opacity="0.16"/>
</radialGradient>
<radialGradient id="paint7_radial" cx="0" cy="0" r="1" gradientUnits="userSpaceOnUse" gradientTransform="translate(719.991 1320.07) scale(719.992 10.8663)">
<stop/>
<stop offset="1" stop-opacity="0.16"/>
</radialGradient>
<radialGradient id="paint8_radial" cx="0" cy="0" r="1" gradientUnits="userSpaceOnUse" gradientTransform="translate(719.991 1315.08) scale(719.992 12.2504)">
<stop/>
<stop offset="1" stop-opacity="0.16"/>
</radialGradient>
<radialGradient id="paint9_radial" cx="0" cy="0" r="1" gradientUnits="userSpaceOnUse" gradientTransform="translate(719.991 1309.95) scale(719.992 13.6663)">
<stop/>
<stop offset="1" stop-opacity="0.16"/>
</radialGradient>
<radialGradient id="paint10_radial" cx="0" cy="0" r="1" gradientUnits="userSpaceOnUse" gradientTransform="translate(719.991 1304.65) scale(719.992 15.1276)">
<stop/>
<stop offset="1" stop-opacity="0.16"/>
</radialGradient>
<radialGradient id="paint11_radial" cx="0" cy="0" r="1" gradientUnits="userSpaceOnUse" gradientTransform="translate(719.991 1299.2) scale(719.992 16.6151)">
<stop/>
<stop offset="1" stop-opacity="0.16"/>
</radialGradient>
<radialGradient id="paint12_radial" cx="0" cy="0" r="1" gradientUnits="userSpaceOnUse" gradientTransform="translate(719.991 1293.58) scale(719.992 18.1523)">
<stop/>
<stop offset="1" stop-opacity="0.16"/>
</radialGradient>
<radialGradient id="paint13_radial" cx="0" cy="0" r="1" gradientUnits="userSpaceOnUse" gradientTransform="translate(719.991 1287.77) scale(719.992 19.7188)">
<stop/>
<stop offset="1" stop-opacity="0.16"/>
</radialGradient>
<radialGradient id="paint14_radial" cx="0" cy="0" r="1" gradientUnits="userSpaceOnUse" gradientTransform="translate(719.991 1281.79) scale(719.992 21.3306)">
<stop/>
<stop offset="1" stop-opacity="0.16"/>
</radialGradient>
<radialGradient id="paint15_radial" cx="0" cy="0" r="1" gradientUnits="userSpaceOnUse" gradientTransform="translate(719.991 1275.64) scale(719.992 22.9788)">
<stop/>
<stop offset="1" stop-opacity="0.16"/>
</radialGradient>
<radialGradient id="paint16_radial" cx="0" cy="0" r="1" gradientUnits="userSpaceOnUse" gradientTransform="translate(719.991 1269.29) scale(719.992 24.6756)">
<stop/>
<stop offset="1" stop-opacity="0.16"/>
</radialGradient>
<radialGradient id="paint17_radial" cx="0" cy="0" r="1" gradientUnits="userSpaceOnUse" gradientTransform="translate(719.991 1262.75) scale(719.992 26.4146)">
<stop/>
<stop offset="1" stop-opacity="0.16"/>
</radialGradient>
<radialGradient id="paint18_radial" cx="0" cy="0" r="1" gradientUnits="userSpaceOnUse" gradientTransform="translate(719.991 1256.29) scale(719.992 28.4659)">
<stop/>
<stop offset="1" stop-opacity="0.16"/>
</radialGradient>
<radialGradient id="paint19_radial" cx="0" cy="0" r="1" gradientUnits="userSpaceOnUse" gradientTransform="translate(719.991 1249.35) scale(719.992 30.2964)">
<stop/>
<stop offset="1" stop-opacity="0.16"/>
</radialGradient>
<radialGradient id="paint20_radial" cx="0" cy="0" r="1" gradientUnits="userSpaceOnUse" gradientTransform="translate(719.991 1241.89) scale(719.992 32.4847)">
<stop/>
<stop offset="1" stop-opacity="0.16"/>
</radialGradient>
<radialGradient id="paint21_radial" cx="0" cy="0" r="1" gradientUnits="userSpaceOnUse" gradientTransform="translate(719.996 1234.23) scale(719.996 34.1646)">
<stop/>
<stop offset="1" stop-opacity="0.16"/>
</radialGradient>
<radialGradient id="paint22_radial" cx="0" cy="0" r="1" gradientUnits="userSpaceOnUse" gradientTransform="translate(719.991 1226.62) scale(719.992 36.1589)">
<stop/>
<stop offset="1" stop-opacity="0.16"/>
</radialGradient>
<radialGradient id="paint23_radial" cx="0" cy="0" r="1" gradientUnits="userSpaceOnUse" gradientTransform="translate(719.991 1218.76) scale(719.992 38.1993)">
<stop/>
<stop offset="1" stop-opacity="0.16"/>
</radialGradient>
<radialGradient id="paint24_radial" cx="0" cy="0" r="1" gradientUnits="userSpaceOnUse" gradientTransform="translate(719.991 1210.68) scale(719.992 40.2901)">
<stop/>
<stop offset="1" stop-opacity="0.16"/>
</radialGradient>
<radialGradient id="paint25_radial" cx="0" cy="0" r="1" gradientUnits="userSpaceOnUse" gradientTransform="translate(719.991 1202.33) scale(719.992 42.4421)">
<stop/>
<stop offset="1" stop-opacity="0.16"/>
</radialGradient>
<radialGradient id="paint26_radial" cx="0" cy="0" r="1" gradientUnits="userSpaceOnUse" gradientTransform="translate(719.991 1193.73) scale(719.992 44.6451)">
<stop/>
<stop offset="1" stop-opacity="0.16"/>
</radialGradient>
<radialGradient id="paint27_radial" cx="0" cy="0" r="1" gradientUnits="userSpaceOnUse" gradientTransform="translate(719.991 1184.87) scale(719.992 46.9113)">
<stop/>
<stop offset="1" stop-opacity="0.16"/>
</radialGradient>
<radialGradient id="paint28_radial" cx="0" cy="0" r="1" gradientUnits="userSpaceOnUse" gradientTransform="translate(719.991 1175.72) scale(719.992 49.2353)">
<stop/>
<stop offset="1" stop-opacity="0.16"/>
</radialGradient>
<radialGradient id="paint29_radial" cx="0" cy="0" r="1" gradientUnits="userSpaceOnUse" gradientTransform="translate(719.991 1166.34) scale(719.992 51.5848)">
<stop/>
<stop offset="1" stop-opacity="0.16"/>
</radialGradient>
<radialGradient id="paint30_radial" cx="0" cy="0" r="1" gradientUnits="userSpaceOnUse" gradientTransform="translate(719.987 1156.61) scale(719.987 54.0571)">
<stop/>
<stop offset="1" stop-opacity="0.16"/>
</radialGradient>
<radialGradient id="paint31_radial" cx="0" cy="0" r="1" gradientUnits="userSpaceOnUse" gradientTransform="translate(719.991 1146.57) scale(719.992 56.599)">
<stop/>
<stop offset="1" stop-opacity="0.16"/>
</radialGradient>
<radialGradient id="paint32_radial" cx="0" cy="0" r="1" gradientUnits="userSpaceOnUse" gradientTransform="translate(719.991 1136.22) scale(719.992 59.2193)">
<stop/>
<stop offset="1" stop-opacity="0.16"/>
</radialGradient>
<radialGradient id="paint33_radial" cx="0" cy="0" r="1" gradientUnits="userSpaceOnUse" gradientTransform="translate(719.996 1125.55) scale(719.996 61.9221)">
<stop/>
<stop offset="1" stop-opacity="0.16"/>
</radialGradient>
<radialGradient id="paint34_radial" cx="0" cy="0" r="1" gradientUnits="userSpaceOnUse" gradientTransform="translate(719.991 1113.59) scale(719.992 65.6406)">
<stop/>
<stop offset="1" stop-opacity="0.16"/>
</radialGradient>
<radialGradient id="paint35_radial" cx="0" cy="0" r="1" gradientUnits="userSpaceOnUse" gradientTransform="translate(719.996 1102.06) scale(719.996 68.6757)">
<stop/>
<stop offset="1" stop-opacity="0.16"/>
</radialGradient>
<radialGradient id="paint36_radial" cx="0" cy="0" r="1" gradientUnits="userSpaceOnUse" gradientTransform="translate(719.991 1090.18) scale(719.992 71.8069)">
<stop/>
<stop offset="1" stop-opacity="0.16"/>
</radialGradient>
<radialGradient id="paint37_radial" cx="0" cy="0" r="1" gradientUnits="userSpaceOnUse" gradientTransform="translate(719.996 1077.94) scale(719.996 75.0367)">
<stop/>
<stop offset="1" stop-opacity="0.16"/>
</radialGradient>
<radialGradient id="paint38_radial" cx="0" cy="0" r="1" gradientUnits="userSpaceOnUse" gradientTransform="translate(719.991 1064.77) scale(719.992 78.9104)">
<stop/>
<stop offset="1" stop-opacity="0.16"/>
</radialGradient>
<radialGradient id="paint39_radial" cx="0" cy="0" r="1" gradientUnits="userSpaceOnUse" gradientTransform="translate(719.991 1051.76) scale(719.992 82.348)">
<stop/>
<stop offset="1" stop-opacity="0.16"/>
</radialGradient>
<radialGradient id="paint40_radial" cx="0" cy="0" r="1" gradientUnits="userSpaceOnUse" gradientTransform="translate(719.991 1038.38) scale(719.992 85.882)">
<stop/>
<stop offset="1" stop-opacity="0.16"/>
</radialGradient>
<radialGradient id="paint41_radial" cx="0" cy="0" r="1" gradientUnits="userSpaceOnUse" gradientTransform="translate(719.992 1025.02) scale(719.992 89.932)">
<stop/>
<stop offset="1" stop-opacity="0.16"/>
</radialGradient>
<radialGradient id="paint42_radial" cx="0" cy="0" r="1" gradientUnits="userSpaceOnUse" gradientTransform="translate(719.987 1010.91) scale(719.987 93.7171)">
<stop/>
<stop offset="1" stop-opacity="0.16"/>
</radialGradient>
<radialGradient id="paint43_radial" cx="0" cy="0" r="1" gradientUnits="userSpaceOnUse" gradientTransform="translate(719.983 996.389) scale(719.983 97.6144)">
<stop/>
<stop offset="1" stop-opacity="0.16"/>
</radialGradient>
<radialGradient id="paint44_radial" cx="0" cy="0" r="1" gradientUnits="userSpaceOnUse" gradientTransform="translate(719.992 981.492) scale(719.992 101.628)">
<stop/>
<stop offset="1" stop-opacity="0.16"/>
</radialGradient>
<radialGradient id="paint45_radial" cx="0" cy="0" r="1" gradientUnits="userSpaceOnUse" gradientTransform="translate(719.992 966.189) scale(719.992 105.759)">
<stop/>
<stop offset="1" stop-opacity="0.16"/>
</radialGradient>
<radialGradient id="paint46_radial" cx="0" cy="0" r="1" gradientUnits="userSpaceOnUse" gradientTransform="translate(719.992 951.065) scale(719.992 109.446)">
<stop/>
<stop offset="1" stop-opacity="0.16"/>
</radialGradient>
<radialGradient id="paint47_radial" cx="0" cy="0" r="1" gradientUnits="userSpaceOnUse" gradientTransform="translate(719.992 934.415) scale(719.992 114.405)">
<stop/>
<stop offset="1" stop-opacity="0.16"/>
</radialGradient>
<radialGradient id="paint48_radial" cx="0" cy="0" r="1" gradientUnits="userSpaceOnUse" gradientTransform="translate(719.996 918.489) scale(719.996 118.355)">
<stop/>
<stop offset="1" stop-opacity="0.16"/>
</radialGradient>
<radialGradient id="paint49_radial" cx="0" cy="0" r="1" gradientUnits="userSpaceOnUse" gradientTransform="translate(719.987 901.605) scale(719.987 122.996)">
<stop/>
<stop offset="1" stop-opacity="0.16"/>
</radialGradient>
<radialGradient id="paint50_radial" cx="0" cy="0" r="1" gradientUnits="userSpaceOnUse" gradientTransform="translate(719.992 884.347) scale(719.992 127.775)">
<stop/>
<stop offset="1" stop-opacity="0.16"/>
</radialGradient>
<radialGradient id="paint51_radial" cx="0" cy="0" r="1" gradientUnits="userSpaceOnUse" gradientTransform="translate(719.996 866.699) scale(719.996 132.688)">
<stop/>
<stop offset="1" stop-opacity="0.16"/>
</radialGradient>
<radialGradient id="paint52_radial" cx="0" cy="0" r="1" gradientUnits="userSpaceOnUse" gradientTransform="translate(720 848.705) scale(720 137.742)">
<stop/>
<stop offset="1" stop-opacity="0.16"/>
</radialGradient>
<radialGradient id="paint53_radial" cx="0" cy="0" r="1" gradientUnits="userSpaceOnUse" gradientTransform="translate(719.987 830.353) scale(719.987 142.931)">
<stop/>
<stop offset="1" stop-opacity="0.16"/>
</radialGradient>
<radialGradient id="paint54_radial" cx="0" cy="0" r="1" gradientUnits="userSpaceOnUse" gradientTransform="translate(719.996 811.67) scale(719.996 148.261)">
<stop/>
<stop offset="1" stop-opacity="0.16"/>
</radialGradient>
<radialGradient id="paint55_radial" cx="0" cy="0" r="1" gradientUnits="userSpaceOnUse" gradientTransform="translate(719.992 791.941) scale(719.992 154.458)">
<stop/>
<stop offset="1" stop-opacity="0.16"/>
</radialGradient>
<radialGradient id="paint56_radial" cx="0" cy="0" r="1" gradientUnits="userSpaceOnUse" gradientTransform="translate(719.992 772.584) scale(719.992 160.149)">
<stop/>
<stop offset="1" stop-opacity="0.16"/>
</radialGradient>
<radialGradient id="paint57_radial" cx="0" cy="0" r="1" gradientUnits="userSpaceOnUse" gradientTransform="translate(719.992 752.479) scale(719.992 165.523)">
<stop/>
<stop offset="1" stop-opacity="0.16"/>
</radialGradient>
<radialGradient id="paint58_radial" cx="0" cy="0" r="1" gradientUnits="userSpaceOnUse" gradientTransform="translate(719.987 732.814) scale(719.987 171.782)">
<stop/>
<stop offset="1" stop-opacity="0.16"/>
</radialGradient>
<radialGradient id="paint59_radial" cx="0" cy="0" r="1" gradientUnits="userSpaceOnUse" gradientTransform="translate(719.992 713.368) scale(719.992 177.892)">
<stop/>
<stop offset="1" stop-opacity="0.16"/>
</radialGradient>
<radialGradient id="paint60_radial" cx="0" cy="0" r="1" gradientUnits="userSpaceOnUse" gradientTransform="translate(719.987 699.731) scale(719.987 173.516)">
<stop/>
<stop offset="1" stop-opacity="0.16"/>
</radialGradient>
<radialGradient id="paint61_radial" cx="0" cy="0" r="1" gradientUnits="userSpaceOnUse" gradientTransform="translate(719.996 682.426) scale(719.996 167.548)">
<stop/>
<stop offset="1" stop-opacity="0.16"/>
</radialGradient>
<radialGradient id="paint62_radial" cx="0" cy="0" r="1" gradientUnits="userSpaceOnUse" gradientTransform="translate(719.992 662.911) scale(719.992 161.459)">
<stop/>
<stop offset="1" stop-opacity="0.16"/>
</radialGradient>
<radialGradient id="paint63_radial" cx="0" cy="0" r="1" gradientUnits="userSpaceOnUse" gradientTransform="translate(719.987 640.908) scale(719.987 155.007)">
<stop/>
<stop offset="1" stop-opacity="0.16"/>
</radialGradient>
<radialGradient id="paint64_radial" cx="0" cy="0" r="1" gradientUnits="userSpaceOnUse" gradientTransform="translate(719.992 616.836) scale(719.992 148.556)">
<stop/>
<stop offset="1" stop-opacity="0.16"/>
</radialGradient>
<radialGradient id="paint65_radial" cx="0" cy="0" r="1" gradientUnits="userSpaceOnUse" gradientTransform="translate(719.992 590.904) scale(719.992 141.416)">
<stop/>
<stop offset="1" stop-opacity="0.16"/>
</radialGradient>
<radialGradient id="paint66_radial" cx="0" cy="0" r="1" gradientUnits="userSpaceOnUse" gradientTransform="translate(719.992 562.51) scale(719.992 134.968)">
<stop/>
<stop offset="1" stop-opacity="0.16"/>
</radialGradient>
<radialGradient id="paint67_radial" cx="0" cy="0" r="1" gradientUnits="userSpaceOnUse" gradientTransform="translate(719.992 531.443) scale(719.992 127.862)">
<stop/>
<stop offset="1" stop-opacity="0.16"/>
</radialGradient>
<radialGradient id="paint68_radial" cx="0" cy="0" r="1" gradientUnits="userSpaceOnUse" gradientTransform="translate(719.992 498.058) scale(719.992 120.42)">
<stop/>
<stop offset="1" stop-opacity="0.16"/>
</radialGradient>
<radialGradient id="paint69_radial" cx="0" cy="0" r="1" gradientUnits="userSpaceOnUse" gradientTransform="translate(719.992 463.306) scale(719.992 111.701)">
<stop/>
<stop offset="1" stop-opacity="0.16"/>
</radialGradient>
<radialGradient id="paint70_radial" cx="0" cy="0" r="1" gradientUnits="userSpaceOnUse" gradientTransform="translate(719.992 425.022) scale(719.992 103.945)">
<stop/>
<stop offset="1" stop-opacity="0.16"/>
</radialGradient>
<radialGradient id="paint71_radial" cx="0" cy="0" r="1" gradientUnits="userSpaceOnUse" gradientTransform="translate(719.992 384.631) scale(719.992 95.7964)">
<stop/>
<stop offset="1" stop-opacity="0.16"/>
</radialGradient>
<radialGradient id="paint72_radial" cx="0" cy="0" r="1" gradientUnits="userSpaceOnUse" gradientTransform="translate(719.992 342.266) scale(719.992 87.2377)">
<stop/>
<stop offset="1" stop-opacity="0.16"/>
</radialGradient>
<radialGradient id="paint73_radial" cx="0" cy="0" r="1" gradientUnits="userSpaceOnUse" gradientTransform="translate(719.992 298.309) scale(719.992 78.0252)">
<stop/>
<stop offset="1" stop-opacity="0.16"/>
</radialGradient>
<radialGradient id="paint74_radial" cx="0" cy="0" r="1" gradientUnits="userSpaceOnUse" gradientTransform="translate(719.992 252.612) scale(719.992 68.6052)">
<stop/>
<stop offset="1" stop-opacity="0.16"/>
</radialGradient>
<radialGradient id="paint75_radial" cx="0" cy="0" r="1" gradientUnits="userSpaceOnUse" gradientTransform="translate(719.992 205.661) scale(719.992 58.737)">
<stop/>
<stop offset="1" stop-opacity="0.16"/>
</radialGradient>
<radialGradient id="paint76_radial" cx="0" cy="0" r="1" gradientUnits="userSpaceOnUse" gradientTransform="translate(719.987 157.712) scale(719.987 48.4859)">
<stop/>
<stop offset="1" stop-opacity="0.16"/>
</radialGradient>
<radialGradient id="paint77_radial" cx="0" cy="0" r="1" gradientUnits="userSpaceOnUse" gradientTransform="translate(719.992 109.612) scale(719.992 37.3947)">
<stop/>
<stop offset="1" stop-opacity="0.16"/>
</radialGradient>
<radialGradient id="paint78_radial" cx="0" cy="0" r="1" gradientUnits="userSpaceOnUse" gradientTransform="translate(719.996 61.0801) scale(719.996 25.6352)">
<stop/>
<stop offset="1" stop-opacity="0.16"/>
</radialGradient>
<radialGradient id="paint79_radial" cx="0" cy="0" r="1" gradientUnits="userSpaceOnUse" gradientTransform="translate(719.992 12.9234) scale(719.992 12.9233)">
<stop/>
<stop offset="1" stop-opacity="0.16"/>
</radialGradient>
</defs>
</svg>
