<svg width="25" height="38" viewBox="0 0 25 38" fill="none" xmlns="http://www.w3.org/2000/svg">
<path d="M17.6 1.49999C17.6 1.03975 17.9731 0.666656 18.4334 0.666656H20.1C20.5603 0.666656 20.9334 1.03975 20.9334 1.49999V5.66666H23.4334C23.8936 5.66666 24.2667 6.03975 24.2667 6.49999V28.1667C24.2667 28.6269 23.8936 29 23.4334 29H15.1C14.6398 29 14.2667 28.6269 14.2667 28.1667V6.49999C14.2667 6.03975 14.6398 5.66666 15.1 5.66666H17.6V1.49999Z" fill="white"/>
<path fill-rule="evenodd" clip-rule="evenodd" d="M4.26668 36.5V32.3333H1.76668C1.30645 32.3333 0.93335 31.9602 0.93335 31.5V9.83332C0.93335 9.37309 1.30645 8.99999 1.76668 8.99999H10.1C10.5603 8.99999 10.9334 9.37309 10.9334 9.83332V31.5C10.9334 31.9602 10.5603 32.3333 10.1 32.3333H7.60002V36.5C7.60002 36.9602 7.22692 37.3333 6.76668 37.3333H5.10002C4.63978 37.3333 4.26668 36.9602 4.26668 36.5ZM8.85002 30.25V11.0833H3.01668V30.25H8.85002Z" fill="white"/>
</svg>
