<svg xmlns="http://www.w3.org/2000/svg" xmlns:xlink="http://www.w3.org/1999/xlink" width="1538" height="1784" viewBox="0 0 1538 1784"><defs><clipPath id="b"><rect width="1538" height="1784"/></clipPath></defs><g id="a" clip-path="url(#b)"><g transform="translate(-262 -2041)"><g transform="translate(264.22 2043.22)"><line x2="0.24" y2="204" transform="translate(388.01 11.78)" fill="none" stroke="#6868fc" stroke-linejoin="round" stroke-width="6.16"/><line x1="173.43" y1="102.08" transform="translate(591.98 563.89)" fill="none" stroke="#6868fc" stroke-linejoin="round" stroke-width="6.16"/><line y1="102.08" x2="173.43" transform="translate(12.32 563.89)" fill="none" stroke="#6868fc" stroke-linejoin="round" stroke-width="6.16"/><path d="M387.97,447.97,185.21,330.85,387.97,213.78,590.46,331.33Z" fill="none" stroke="#77e3ef" stroke-linecap="round" stroke-linejoin="round" stroke-width="9.24"/><path d="M387.97,680.9,185.47,564.68l-.26-233.83L387.97,447.97Z" fill="none" stroke="#4acbdc" stroke-linejoin="round" stroke-width="9.24"/><path d="M387.97,680.9,590.46,565.2V331.33L387.97,447.97Z" fill="none" stroke="#07abc5" stroke-linejoin="round" stroke-width="9.24"/><path d="M765.41,665.97V230.29L388.09,12.44,10.78,230.29V665.97L388.09,883.82Z" fill="none" stroke="#7c7cff" stroke-miterlimit="10" stroke-width="21.55"/><path d="M11.39,230.67l376.7,217.84L766.02,230.67" fill="none" stroke="#7c7cff" stroke-linecap="round" stroke-miterlimit="10" stroke-width="21.55"/><line y2="435.31" transform="translate(388.71 448.51)" fill="none" stroke="#7c7cff" stroke-linecap="round" stroke-miterlimit="10" stroke-width="21.55"/></g><g transform="translate(1019.22 2043.22)"><line x2="0.24" y2="204" transform="translate(388.01 11.78)" fill="none" stroke="#6868fc" stroke-linejoin="round" stroke-width="6.16"/><line x1="173.43" y1="102.08" transform="translate(591.98 563.89)" fill="none" stroke="#6868fc" stroke-linejoin="round" stroke-width="6.16"/><line y1="102.08" x2="173.43" transform="translate(12.32 563.89)" fill="none" stroke="#6868fc" stroke-linejoin="round" stroke-width="6.16"/><path d="M387.97,447.97,185.21,330.85,387.97,213.78,590.46,331.33Z" fill="none" stroke="#77e3ef" stroke-linecap="round" stroke-linejoin="round" stroke-width="9.24"/><path d="M387.97,680.9,185.47,564.68l-.26-233.83L387.97,447.97Z" fill="none" stroke="#4acbdc" stroke-linejoin="round" stroke-width="9.24"/><path d="M387.97,680.9,590.46,565.2V331.33L387.97,447.97Z" fill="none" stroke="#07abc5" stroke-linejoin="round" stroke-width="9.24"/><path d="M765.41,665.97V230.29L388.09,12.44,10.78,230.29V665.97L388.09,883.82Z" fill="none" stroke="#7c7cff" stroke-miterlimit="10" stroke-width="21.55"/><path d="M11.39,230.67l376.7,217.84L766.02,230.67" fill="none" stroke="#7c7cff" stroke-linecap="round" stroke-miterlimit="10" stroke-width="21.55"/><line y2="435.31" transform="translate(388.71 448.51)" fill="none" stroke="#7c7cff" stroke-linecap="round" stroke-miterlimit="10" stroke-width="21.55"/></g><g transform="translate(1019.22 2915.22)"><line x2="0.24" y2="204" transform="translate(388.01 11.78)" fill="none" stroke="#6868fc" stroke-linejoin="round" stroke-width="6.16"/><line x1="173.43" y1="102.08" transform="translate(591.98 563.89)" fill="none" stroke="#6868fc" stroke-linejoin="round" stroke-width="6.16"/><line y1="102.08" x2="173.43" transform="translate(12.32 563.89)" fill="none" stroke="#6868fc" stroke-linejoin="round" stroke-width="6.16"/><path d="M387.97,447.97,185.21,330.85,387.97,213.78,590.46,331.33Z" fill="none" stroke="#77e3ef" stroke-linecap="round" stroke-linejoin="round" stroke-width="9.24"/><path d="M387.97,680.9,185.47,564.68l-.26-233.83L387.97,447.97Z" fill="none" stroke="#4acbdc" stroke-linejoin="round" stroke-width="9.24"/><path d="M387.97,680.9,590.46,565.2V331.33L387.97,447.97Z" fill="none" stroke="#07abc5" stroke-linejoin="round" stroke-width="9.24"/><path d="M765.41,665.97V230.29L388.09,12.44,10.78,230.29V665.97L388.09,883.82Z" fill="none" stroke="#7c7cff" stroke-miterlimit="10" stroke-width="21.55"/><path d="M11.39,230.67l376.7,217.84L766.02,230.67" fill="none" stroke="#7c7cff" stroke-linecap="round" stroke-miterlimit="10" stroke-width="21.55"/><line y2="435.31" transform="translate(388.71 448.51)" fill="none" stroke="#7c7cff" stroke-linecap="round" stroke-miterlimit="10" stroke-width="21.55"/></g><g transform="translate(264.22 2915.22)"><line x2="0.24" y2="204" transform="translate(388.01 11.78)" fill="none" stroke="#6868fc" stroke-linejoin="round" stroke-width="6.16"/><line x1="173.43" y1="102.08" transform="translate(591.98 563.89)" fill="none" stroke="#6868fc" stroke-linejoin="round" stroke-width="6.16"/><line y1="102.08" x2="173.43" transform="translate(12.32 563.89)" fill="none" stroke="#6868fc" stroke-linejoin="round" stroke-width="6.16"/><path d="M387.97,447.97,185.21,330.85,387.97,213.78,590.46,331.33Z" fill="none" stroke="#77e3ef" stroke-linecap="round" stroke-linejoin="round" stroke-width="9.24"/><path d="M387.97,680.9,185.47,564.68l-.26-233.83L387.97,447.97Z" fill="none" stroke="#4acbdc" stroke-linejoin="round" stroke-width="9.24"/><path d="M387.97,680.9,590.46,565.2V331.33L387.97,447.97Z" fill="none" stroke="#07abc5" stroke-linejoin="round" stroke-width="9.24"/><path d="M765.41,665.97V230.29L388.09,12.44,10.78,230.29V665.97L388.09,883.82Z" fill="none" stroke="#7c7cff" stroke-miterlimit="10" stroke-width="21.55"/><path d="M11.39,230.67l376.7,217.84L766.02,230.67" fill="none" stroke="#7c7cff" stroke-linecap="round" stroke-miterlimit="10" stroke-width="21.55"/><line y2="435.31" transform="translate(388.71 448.51)" fill="none" stroke="#7c7cff" stroke-linecap="round" stroke-miterlimit="10" stroke-width="21.55"/></g></g></g></svg>