<svg width="28" height="34" viewBox="0 0 28 34" fill="none" xmlns="http://www.w3.org/2000/svg">
<path fill-rule="evenodd" clip-rule="evenodd" d="M14.2013 0.333344C14.2013 0.333344 20.6012 5.71668 27.1346 5.71668C27.1346 5.71668 31.0846 25.3167 14.2013 33.6667C-2.68206 25.3167 1.26794 5.71668 1.26794 5.71668C7.80127 5.71668 14.2013 0.333344 14.2013 0.333344ZM21.4647 12.5802C21.7852 12.2499 21.7771 11.7223 21.4468 11.4019C21.1164 11.0814 20.5889 11.0894 20.2684 11.4198L12.7824 19.1374L9.79722 16.0689C9.47629 15.739 8.9487 15.7318 8.61882 16.0527C8.28894 16.3736 8.28167 16.9012 8.6026 17.2311L12.1859 20.9144C12.343 21.0759 12.5587 21.1668 12.7839 21.1667C13.0091 21.1665 13.2246 21.0752 13.3814 20.9136L21.4647 12.5802Z" fill="white"/>
</svg>
