<svg width="35" height="34" viewBox="0 0 35 34" fill="none" xmlns="http://www.w3.org/2000/svg">
<path fill-rule="evenodd" clip-rule="evenodd" d="M24.0667 33.6667H2.40007C1.56673 33.6667 0.733398 32.8333 0.733398 32V2.00001C0.733398 1.16668 1.56673 0.333344 2.40007 0.333344H32.4001C33.2334 0.333344 34.0667 1.16668 34.0667 2.00001V23.6667H24.0667V33.6667ZM9.06673 7.83334C8.60649 7.83334 8.2334 8.20644 8.2334 8.66668C8.2334 9.12691 8.60649 9.50001 9.06673 9.50001H25.7334C26.1936 9.50001 26.5667 9.12691 26.5667 8.66668C26.5667 8.20644 26.1936 7.83334 25.7334 7.83334H9.06673ZM9.06673 16.1667C8.60649 16.1667 8.2334 16.5398 8.2334 17C8.2334 17.4602 8.60649 17.8333 9.06673 17.8333H25.7334C26.1936 17.8333 26.5667 17.4602 26.5667 17C26.5667 16.5398 26.1936 16.1667 25.7334 16.1667H9.06673ZM9.06673 24.5C8.60649 24.5 8.2334 24.8731 8.2334 25.3333C8.2334 25.7936 8.60649 26.1667 9.06673 26.1667H17.4001C17.8603 26.1667 18.2334 25.7936 18.2334 25.3333C18.2334 24.8731 17.8603 24.5 17.4001 24.5H9.06673Z" fill="white"/>
<path d="M24.9001 24.5V32.8333H25.0667C25.2195 32.8333 25.3095 32.8089 25.3741 32.7802C25.4423 32.7499 25.5267 32.6949 25.6441 32.5774L32.9775 25.2441C33.095 25.1266 33.1499 25.0423 33.1802 24.9741C33.2089 24.9095 33.2334 24.8194 33.2334 24.6667V24.5H24.9001Z" fill="white"/>
</svg>
