<svg fill="#fbfbfb" height="100" viewBox="0 0 64 64" width="100" xmlns="http://www.w3.org/2000/svg"><path d="m32 24.5a7.5 7.5 0 1 0 7.5 7.5 7.51 7.51 0 0 0 -7.5-7.5zm0 12a4.5 4.5 0 1 1 4.5-4.5 4.5 4.5 0 0 1 -4.5 4.5z"/><path d="m52.73 25.71h-2.6a1.12 1.12 0 0 1 -1-.76v-.13a1.11 1.11 0 0 1 .22-1.19l2.09-2.09a3.42 3.42 0 0 0 0-4.83l-4.07-4.07a3.5 3.5 0 0 0 -4.83 0l-1.71 1.71a1.29 1.29 0 0 1 -1.44.27l-.24-.1a1.3 1.3 0 0 1 -.78-1.19v-2.41a3.42 3.42 0 0 0 -3.49-3.42h-5.75a3.42 3.42 0 0 0 -3.42 3.42v2.41a1.29 1.29 0 0 1 -.78 1.19l-.25.11a1.29 1.29 0 0 1 -1.43-.27l-1.71-1.71a3.5 3.5 0 0 0 -4.83 0l-4.07 4.07a3.42 3.42 0 0 0 0 4.83l2.09 2.09a1.11 1.11 0 0 1 .22 1.2v.11a1.12 1.12 0 0 1 -1 .77h-2.6a3.53 3.53 0 0 0 -3.85 3.41v5.75a3.42 3.42 0 0 0 3.42 3.42h3.58a.94.94 0 0 1 .86.58 1 1 0 0 1 -.2 1.07l-2.52 2.52a3.42 3.42 0 0 0 0 4.83l4.07 4.07a3.5 3.5 0 0 0 4.83 0l2.89-2.89a.74.74 0 0 1 .83-.14.72.72 0 0 1 .45.67v4.09a3.42 3.42 0 0 0 3.42 3.42h5.75a3.42 3.42 0 0 0 3.42-3.42v-4.1a.74.74 0 0 1 .5-.69.71.71 0 0 1 .78.16l2.89 2.89a3.5 3.5 0 0 0 4.83 0l4.07-4.07a3.42 3.42 0 0 0 0-4.83l-2.52-2.52a1 1 0 0 1 -.18-1.1.93.93 0 0 1 .84-.54h3.58a3.42 3.42 0 0 0 3.42-3.42v-5.75a3.53 3.53 0 0 0 -3.78-3.42zm.77 9.17a.42.42 0 0 1 -.42.42h-3.58a4 4 0 0 0 -2.78 6.77l2.52 2.52a.42.42 0 0 1 0 .59l-4.07 4.07a.36.36 0 0 1 -.59 0l-2.89-2.89a3.76 3.76 0 0 0 -6.4 2.64v4.09a.42.42 0 0 1 -.42.42h-5.74a.42.42 0 0 1 -.42-.42v-4.09a3.75 3.75 0 0 0 -6.4-2.65l-2.89 2.89a.36.36 0 0 1 -.59 0l-4.07-4.07a.42.42 0 0 1 0-.59l2.52-2.52a4 4 0 0 0 .79-4.46 3.93 3.93 0 0 0 -3.58-2.31h-3.57a.42.42 0 0 1 -.42-.42v-5.74c0-.4.64-.42.77-.42h2.6a4.1 4.1 0 0 0 3.85-2.71v-.09a4.12 4.12 0 0 0 -.9-4.39l-2.09-2.09a.42.42 0 0 1 0-.59l4.07-4.07a.36.36 0 0 1 .59 0l1.71 1.71a4.28 4.28 0 0 0 4.74.91l.25-.11a4.29 4.29 0 0 0 2.59-3.94v-2.42a.42.42 0 0 1 .42-.42h5.75a.42.42 0 0 1 .42.42v2.41a4.29 4.29 0 0 0 2.59 3.95l.24.1a4.28 4.28 0 0 0 4.75-.91l1.71-1.7a.36.36 0 0 1 .59 0l4.07 4.07a.42.42 0 0 1 0 .59l-2.09 2.09a4.12 4.12 0 0 0 -.91 4.38v.11a4.1 4.1 0 0 0 3.84 2.72h2.6c.13 0 .77 0 .77.42z"/></svg>