<svg height='100px' width='100px'  fill="#fbfbfb" xmlns="http://www.w3.org/2000/svg" xmlns:xlink="http://www.w3.org/1999/xlink" version="1.1" x="0px" y="0px" viewBox="0 0 10 10" enable-background="new 0 0 10 10" xml:space="preserve"><g><circle cx="5" cy="5" r="1.199"></circle><path d="M9.024,4.133l-1.067-0.18c-0.038-0.104-0.08-0.205-0.125-0.304l0.629-0.884c0.086-0.123,0.072-0.293-0.036-0.4L7.633,1.575   C7.525,1.466,7.357,1.452,7.233,1.54L6.352,2.168c-0.1-0.046-0.202-0.088-0.304-0.124l-0.181-1.07   c-0.026-0.15-0.156-0.259-0.309-0.259H4.44c-0.153,0-0.284,0.109-0.31,0.259l-0.179,1.07C3.848,2.08,3.746,2.122,3.648,2.168   L2.767,1.54C2.643,1.452,2.473,1.466,2.363,1.575L1.572,2.365c-0.107,0.107-0.121,0.277-0.033,0.4l0.629,0.883   c-0.047,0.098-0.09,0.199-0.127,0.303L0.975,4.133c-0.152,0.025-0.26,0.155-0.26,0.306v1.12c0,0.151,0.107,0.281,0.26,0.308   l1.066,0.181c0.037,0.102,0.08,0.204,0.127,0.304L1.539,7.233C1.451,7.357,1.465,7.525,1.572,7.633l0.791,0.792   c0.109,0.107,0.279,0.121,0.403,0.036l0.882-0.629C3.746,7.879,3.848,7.92,3.952,7.956l0.179,1.069   c0.025,0.149,0.156,0.26,0.31,0.26h1.118c0.152,0,0.282-0.11,0.309-0.26l0.181-1.069C6.149,7.92,6.252,7.879,6.352,7.832   l0.882,0.629c0.124,0.085,0.292,0.071,0.399-0.036l0.792-0.792c0.108-0.107,0.122-0.275,0.033-0.399L7.832,6.352   c0.045-0.1,0.087-0.199,0.124-0.304l1.068-0.181C9.176,5.841,9.285,5.711,9.285,5.56v-1.12C9.285,4.289,9.176,4.158,9.024,4.133z    M6.822,5c0,1.005-0.817,1.822-1.822,1.822C3.994,6.822,3.178,6.005,3.178,5c0-1.006,0.816-1.823,1.822-1.823   C6.005,3.177,6.822,3.994,6.822,5z"></path></g></svg>