<svg width="16" height="16" viewBox="0 0 16 16" fill="none" xmlns="http://www.w3.org/2000/svg">
<path d="M14.3764 1.87038C13.0964 0.59875 11.0367 0.59875 9.75671 1.87038L6.36329 5.27046C5.71769 5.90856 5.3999 6.74831 5.3999 7.58332C5.3999 7.77072 5.417 7.94372 5.43994 8.10426C5.44249 8.12212 5.44576 8.13986 5.44973 8.15739L5.45284 8.17406C5.48402 8.32992 5.5248 8.48792 5.58406 8.65059C5.7371 9.10466 5.99806 9.53179 6.36453 9.89079C6.54556 10.0714 6.74718 10.2319 6.96358 10.3617C7.27932 10.5511 7.68878 10.4487 7.87825 10.133C8.06765 9.81726 7.96532 9.40779 7.64958 9.21832C7.53365 9.14879 7.41625 9.05686 7.30465 8.94519L7.29918 8.93986C7.08305 8.72866 6.93272 8.48032 6.84572 8.21919C6.84352 8.21259 6.84118 8.20606 6.83878 8.19952C6.81072 8.12332 6.78818 8.04326 6.76858 7.95239C6.76778 7.94519 6.76685 7.93772 6.76572 7.92986C6.76365 7.91539 6.75992 7.89152 6.75252 7.86126C6.74005 7.76326 6.73325 7.67292 6.73325 7.58332C6.73325 7.08572 6.92158 6.59284 7.30158 6.21781L10.6974 2.81524C11.4572 2.06148 12.6762 2.06157 13.4359 2.8155C13.8113 3.1913 13.9999 3.68552 13.9999 4.18332C13.9999 4.68147 13.811 5.17602 13.4352 5.55192L11.3818 7.60526C11.1214 7.86559 11.1214 8.28772 11.3818 8.54806C11.6422 8.80839 12.0643 8.80839 12.3246 8.54806L14.378 6.49473C15.0154 5.8573 15.3332 5.01851 15.3332 4.18332C15.3332 3.34814 15.0154 2.50935 14.378 1.87192L14.3764 1.87038Z" fill="#C8CCD6"/>
<path d="M9.03617 6.13835C8.72044 5.94892 8.31097 6.05129 8.1215 6.36702C7.9321 6.68274 8.03444 7.09221 8.35017 7.28168C8.46604 7.35121 8.58344 7.44314 8.69504 7.55481L8.70057 7.56014C8.91664 7.77134 9.06697 8.01968 9.15404 8.28081C9.15624 8.28741 9.15857 8.29394 9.16097 8.30048C9.18904 8.37668 9.21157 8.45674 9.23117 8.54761C9.23177 8.553 9.23244 8.55855 9.23322 8.5643L9.23404 8.57014C9.2361 8.58461 9.23977 8.60848 9.24724 8.63874C9.25964 8.73674 9.2665 8.82708 9.2665 8.91668C9.2665 9.41428 9.07817 9.90714 8.69817 10.2822L7.68777 11.2926L5.30332 13.6837L5.30229 13.6847C4.54247 14.4385 3.32353 14.4384 2.5638 13.6845C2.18842 13.3087 1.99984 12.8145 1.99984 12.3167C1.99984 11.8185 2.18868 11.324 2.56458 10.9481L4.61791 8.89474C4.87826 8.63441 4.87826 8.21228 4.61791 7.95194C4.35756 7.69161 3.93545 7.69161 3.6751 7.95194L1.62176 10.0053C0.984331 10.6427 0.666504 11.4815 0.666504 12.3167C0.666504 13.1519 0.984331 13.9907 1.62176 14.6281L1.62332 14.6296C2.9033 15.9013 4.96304 15.9013 6.24303 14.6296L9.63644 11.2295C10.282 10.5915 10.5998 9.75168 10.5998 8.91668C10.5998 8.72928 10.5828 8.55628 10.5598 8.39574C10.5572 8.37788 10.554 8.36014 10.55 8.34261L10.5469 8.32594C10.5157 8.17008 10.475 8.01208 10.4157 7.84941C10.2626 7.39534 10.0017 6.96828 9.63524 6.60924C9.45417 6.42862 9.25257 6.26817 9.03617 6.13835Z" fill="#C8CCD6"/>
</svg>
