<svg width="14" height="14" viewBox="0 0 14 14" fill="none" xmlns="http://www.w3.org/2000/svg">
<path fill-rule="evenodd" clip-rule="evenodd" d="M0.333292 9.00014C0.333292 8.632 0.631772 8.33347 0.999958 8.33347H4.33329C4.70148 8.33347 4.99996 8.632 4.99996 9.00014C4.99996 9.36834 4.70148 9.6668 4.33329 9.6668H1.66662V12.3335C1.66662 12.7017 1.36814 13.0001 0.999958 13.0001C0.631772 13.0001 0.333292 12.7017 0.333292 12.3335V9.00014Z" fill="#C8CCD6"/>
<path fill-rule="evenodd" clip-rule="evenodd" d="M13.0028 7.6838C13.3617 7.7664 13.5856 8.1242 13.503 8.483C13.0511 10.4463 11.7406 12.0745 9.99349 12.9554C9.09676 13.4075 8.07422 13.6668 6.99996 13.6668C4.04102 13.6668 2.14701 11.7935 0.454398 9.38327C0.242798 9.08194 0.315531 8.66614 0.616845 8.45461C0.918158 8.24301 1.33395 8.31574 1.54555 8.617C3.18627 10.9534 4.73226 12.3335 6.99996 12.3335C7.85903 12.3335 8.67656 12.1261 9.39316 11.7649C10.7927 11.0591 11.8422 9.754 12.2036 8.18394C12.2862 7.82514 12.644 7.6012 13.0028 7.6838Z" fill="#C8CCD6"/>
<path fill-rule="evenodd" clip-rule="evenodd" d="M13.6666 4.99984C13.6666 5.36803 13.3682 5.66651 13 5.66651H9.66663C9.29842 5.66651 8.99996 5.36803 8.99996 4.99984C8.99996 4.63165 9.29842 4.33318 9.66663 4.33318H12.3333V1.66651C12.3333 1.29832 12.6318 0.999844 13 0.999844C13.3682 0.999844 13.6666 1.29832 13.6666 1.66651V4.99984Z" fill="#C8CCD6"/>
<path fill-rule="evenodd" clip-rule="evenodd" d="M0.997058 6.31621C0.638258 6.2336 0.414338 5.8758 0.496932 5.51698C0.948858 3.5537 2.25935 1.92554 4.00645 1.04458C4.90318 0.592518 5.92569 0.333191 6.99996 0.333191C9.95889 0.333191 11.8529 2.20644 13.5455 4.61672C13.7571 4.91804 13.6844 5.33384 13.3831 5.54544C13.0818 5.757 12.666 5.68427 12.4544 5.38298C10.8136 3.0466 9.26762 1.66652 6.99996 1.66652C6.14089 1.66652 5.32336 1.87388 4.60676 2.23513C3.2072 2.94084 2.15769 4.24602 1.79628 5.81607C1.71369 6.17487 1.35587 6.3988 0.997058 6.31621Z" fill="#C8CCD6"/>
</svg>
